G04 #@! TF.GenerationSoftware,KiCad,Pcbnew,5.1.7-a382d34a88~90~ubuntu20.04.1*
G04 #@! TF.CreationDate,2022-01-21T18:01:13-05:00*
G04 #@! TF.ProjectId,cr2022012001-12-leds-board,63723230-3232-4303-9132-3030312d3132,rev?*
G04 #@! TF.SameCoordinates,Original*
G04 #@! TF.FileFunction,Paste,Bot*
G04 #@! TF.FilePolarity,Positive*
%FSLAX46Y46*%
G04 Gerber Fmt 4.6, Leading zero omitted, Abs format (unit mm)*
G04 Created by KiCad (PCBNEW 5.1.7-a382d34a88~90~ubuntu20.04.1) date 2022-01-21 18:01:13*
%MOMM*%
%LPD*%
G01*
G04 APERTURE LIST*
%ADD10C,0.100000*%
%ADD11R,5.100000X5.100000*%
G04 APERTURE END LIST*
G36*
G01*
X160334438Y-40121162D02*
X160334438Y-40121162D01*
G75*
G02*
X160334438Y-39449410I335876J335876D01*
G01*
X160546570Y-39237278D01*
G75*
G02*
X161218322Y-39237278I335876J-335876D01*
G01*
X161218322Y-39237278D01*
G75*
G02*
X161218322Y-39909030I-335876J-335876D01*
G01*
X161006190Y-40121162D01*
G75*
G02*
X160334438Y-40121162I-335876J335876D01*
G01*
G37*
G36*
G01*
X156798905Y-43656695D02*
X156798905Y-43656695D01*
G75*
G02*
X156798905Y-42984943I335876J335876D01*
G01*
X157011037Y-42772811D01*
G75*
G02*
X157682789Y-42772811I335876J-335876D01*
G01*
X157682789Y-42772811D01*
G75*
G02*
X157682789Y-43444563I-335876J-335876D01*
G01*
X157470657Y-43656695D01*
G75*
G02*
X156798905Y-43656695I-335876J335876D01*
G01*
G37*
D10*
G36*
X159273779Y-38459461D02*
G01*
X158177763Y-37363445D01*
X159026291Y-36514917D01*
X160122307Y-37610933D01*
X159273779Y-38459461D01*
G37*
G36*
X155172560Y-42560680D02*
G01*
X154076544Y-41464664D01*
X154925072Y-40616136D01*
X156021088Y-41712152D01*
X155172560Y-42560680D01*
G37*
G36*
G01*
X159492981Y-37610932D02*
X159026291Y-37144242D01*
G75*
G02*
X159026291Y-36514916I314663J314663D01*
G01*
X159026291Y-36514916D01*
G75*
G02*
X159655617Y-36514916I314663J-314663D01*
G01*
X160122307Y-36981606D01*
G75*
G02*
X160122307Y-37610932I-314663J-314663D01*
G01*
X160122307Y-37610932D01*
G75*
G02*
X159492981Y-37610932I-314663J314663D01*
G01*
G37*
G36*
X157824210Y-39909029D02*
G01*
X156728194Y-38813013D01*
X157788854Y-37752353D01*
X158884870Y-38848369D01*
X157824210Y-39909029D01*
G37*
G36*
X156409996Y-41323243D02*
G01*
X155313980Y-40227227D01*
X156374640Y-39166567D01*
X157470656Y-40262583D01*
X156409996Y-41323243D01*
G37*
G36*
G01*
X154543233Y-42560680D02*
X154076543Y-42093990D01*
G75*
G02*
X154076543Y-41464664I314663J314663D01*
G01*
X154076543Y-41464664D01*
G75*
G02*
X154705869Y-41464664I314663J-314663D01*
G01*
X155172559Y-41931354D01*
G75*
G02*
X155172559Y-42560680I-314663J-314663D01*
G01*
X155172559Y-42560680D01*
G75*
G02*
X154543233Y-42560680I-314663J314663D01*
G01*
G37*
G36*
X160263728Y-41146466D02*
G01*
X159309134Y-40191872D01*
X159591976Y-39909030D01*
X160546570Y-40863624D01*
X160263728Y-41146466D01*
G37*
G36*
X159804109Y-41606085D02*
G01*
X158849515Y-40651491D01*
X159132357Y-40368649D01*
X160086951Y-41323243D01*
X159804109Y-41606085D01*
G37*
G36*
X159344489Y-42065704D02*
G01*
X158389895Y-41111110D01*
X158672737Y-40828268D01*
X159627331Y-41782862D01*
X159344489Y-42065704D01*
G37*
G36*
X158884870Y-42525324D02*
G01*
X157930276Y-41570730D01*
X158213118Y-41287888D01*
X159167712Y-42242482D01*
X158884870Y-42525324D01*
G37*
G36*
X158425251Y-42984943D02*
G01*
X157470657Y-42030349D01*
X157753499Y-41747507D01*
X158708093Y-42702101D01*
X158425251Y-42984943D01*
G37*
G36*
X169386348Y-73872466D02*
G01*
X169845967Y-73412847D01*
X171048048Y-74614928D01*
X170588429Y-75074547D01*
X169386348Y-73872466D01*
G37*
G36*
X170284374Y-72974441D02*
G01*
X170743993Y-72514822D01*
X171946074Y-73716903D01*
X171486455Y-74176522D01*
X170284374Y-72974441D01*
G37*
G36*
X171182400Y-72076415D02*
G01*
X171642019Y-71616796D01*
X172844100Y-72818877D01*
X172384481Y-73278496D01*
X171182400Y-72076415D01*
G37*
G36*
X172080425Y-71178389D02*
G01*
X172540044Y-70718770D01*
X173742125Y-71920851D01*
X173282506Y-72380470D01*
X172080425Y-71178389D01*
G37*
G36*
X166918546Y-66016510D02*
G01*
X167378165Y-65556891D01*
X168580246Y-66758972D01*
X168120627Y-67218591D01*
X166918546Y-66016510D01*
G37*
G36*
X166020520Y-66914535D02*
G01*
X166480139Y-66454916D01*
X167682220Y-67656997D01*
X167222601Y-68116616D01*
X166020520Y-66914535D01*
G37*
G36*
X165122494Y-67812561D02*
G01*
X165582113Y-67352942D01*
X166784194Y-68555023D01*
X166324575Y-69014642D01*
X165122494Y-67812561D01*
G37*
G36*
X164224469Y-68710587D02*
G01*
X164684088Y-68250968D01*
X165886169Y-69453049D01*
X165426550Y-69912668D01*
X164224469Y-68710587D01*
G37*
G36*
G01*
X176904660Y-50479605D02*
X177240536Y-50143729D01*
G75*
G02*
X177576412Y-50143729I167938J-167938D01*
G01*
X177929966Y-50497283D01*
G75*
G02*
X177929966Y-50833159I-167938J-167938D01*
G01*
X177594090Y-51169035D01*
G75*
G02*
X177258214Y-51169035I-167938J167938D01*
G01*
X176904660Y-50815481D01*
G75*
G02*
X176904660Y-50479605I167938J167938D01*
G01*
G37*
G36*
G01*
X175614190Y-49189135D02*
X175950066Y-48853259D01*
G75*
G02*
X176285942Y-48853259I167938J-167938D01*
G01*
X176639496Y-49206813D01*
G75*
G02*
X176639496Y-49542689I-167938J-167938D01*
G01*
X176303620Y-49878565D01*
G75*
G02*
X175967744Y-49878565I-167938J167938D01*
G01*
X175614190Y-49525011D01*
G75*
G02*
X175614190Y-49189135I167938J167938D01*
G01*
G37*
G36*
G01*
X173457515Y-52724670D02*
X173121639Y-53060546D01*
G75*
G02*
X172785763Y-53060546I-167938J167938D01*
G01*
X172432209Y-52706992D01*
G75*
G02*
X172432209Y-52371116I167938J167938D01*
G01*
X172768085Y-52035240D01*
G75*
G02*
X173103961Y-52035240I167938J-167938D01*
G01*
X173457515Y-52388794D01*
G75*
G02*
X173457515Y-52724670I-167938J-167938D01*
G01*
G37*
G36*
G01*
X174747985Y-54015140D02*
X174412109Y-54351016D01*
G75*
G02*
X174076233Y-54351016I-167938J167938D01*
G01*
X173722679Y-53997462D01*
G75*
G02*
X173722679Y-53661586I167938J167938D01*
G01*
X174058555Y-53325710D01*
G75*
G02*
X174394431Y-53325710I167938J-167938D01*
G01*
X174747985Y-53679264D01*
G75*
G02*
X174747985Y-54015140I-167938J-167938D01*
G01*
G37*
G36*
G01*
X181483177Y-56242526D02*
X181147301Y-55906650D01*
G75*
G02*
X181147301Y-55570774I167938J167938D01*
G01*
X181500855Y-55217220D01*
G75*
G02*
X181836731Y-55217220I167938J-167938D01*
G01*
X182172607Y-55553096D01*
G75*
G02*
X182172607Y-55888972I-167938J-167938D01*
G01*
X181819053Y-56242526D01*
G75*
G02*
X181483177Y-56242526I-167938J167938D01*
G01*
G37*
G36*
G01*
X180192707Y-57532996D02*
X179856831Y-57197120D01*
G75*
G02*
X179856831Y-56861244I167938J167938D01*
G01*
X180210385Y-56507690D01*
G75*
G02*
X180546261Y-56507690I167938J-167938D01*
G01*
X180882137Y-56843566D01*
G75*
G02*
X180882137Y-57179442I-167938J-167938D01*
G01*
X180528583Y-57532996D01*
G75*
G02*
X180192707Y-57532996I-167938J167938D01*
G01*
G37*
G36*
X176064970Y-68395923D02*
G01*
X176772077Y-67688816D01*
X177479184Y-68395923D01*
X176772077Y-69103030D01*
X176064970Y-68395923D01*
G37*
G36*
X174297204Y-66628157D02*
G01*
X175004311Y-65921050D01*
X175711418Y-66628157D01*
X175004311Y-67335264D01*
X174297204Y-66628157D01*
G37*
G36*
X178893398Y-65567496D02*
G01*
X179600505Y-64860389D01*
X180307612Y-65567496D01*
X179600505Y-66274603D01*
X178893398Y-65567496D01*
G37*
G36*
X177125632Y-63799730D02*
G01*
X177832739Y-63092623D01*
X178539846Y-63799730D01*
X177832739Y-64506837D01*
X177125632Y-63799730D01*
G37*
D11*
X178821320Y-79002525D03*
X204421320Y-79002525D03*
M02*
