G04 #@! TF.GenerationSoftware,KiCad,Pcbnew,5.1.7-a382d34a88~90~ubuntu20.04.1*
G04 #@! TF.CreationDate,2022-01-21T18:01:13-05:00*
G04 #@! TF.ProjectId,cr2022012001-12-leds-board,63723230-3232-4303-9132-3030312d3132,rev?*
G04 #@! TF.SameCoordinates,Original*
G04 #@! TF.FileFunction,Copper,L1,Top*
G04 #@! TF.FilePolarity,Positive*
%FSLAX46Y46*%
G04 Gerber Fmt 4.6, Leading zero omitted, Abs format (unit mm)*
G04 Created by KiCad (PCBNEW 5.1.7-a382d34a88~90~ubuntu20.04.1) date 2022-01-21 18:01:13*
%MOMM*%
%LPD*%
G01*
G04 APERTURE LIST*
G04 #@! TA.AperFunction,ComponentPad*
%ADD10C,0.100000*%
G04 #@! TD*
G04 #@! TA.AperFunction,ComponentPad*
%ADD11C,2.000000*%
G04 #@! TD*
G04 #@! TA.AperFunction,ComponentPad*
%ADD12C,1.600000*%
G04 #@! TD*
G04 #@! TA.AperFunction,ComponentPad*
%ADD13O,1.600000X1.600000*%
G04 #@! TD*
G04 #@! TA.AperFunction,ComponentPad*
%ADD14C,1.800000*%
G04 #@! TD*
G04 #@! TA.AperFunction,ComponentPad*
%ADD15R,1.800000X1.800000*%
G04 #@! TD*
G04 #@! TA.AperFunction,Conductor*
%ADD16C,0.508000*%
G04 #@! TD*
G04 APERTURE END LIST*
G04 #@! TA.AperFunction,ComponentPad*
G36*
G01*
X159492981Y-37610932D02*
X159026291Y-37144242D01*
G75*
G02*
X159026291Y-36514916I314663J314663D01*
G01*
X159026291Y-36514916D01*
G75*
G02*
X159655617Y-36514916I314663J-314663D01*
G01*
X160122307Y-36981606D01*
G75*
G02*
X160122307Y-37610932I-314663J-314663D01*
G01*
X160122307Y-37610932D01*
G75*
G02*
X159492981Y-37610932I-314663J314663D01*
G01*
G37*
G04 #@! TD.AperFunction*
G04 #@! TA.AperFunction,ComponentPad*
G36*
G01*
X154543233Y-42560680D02*
X154076543Y-42093990D01*
G75*
G02*
X154076543Y-41464664I314663J314663D01*
G01*
X154076543Y-41464664D01*
G75*
G02*
X154705869Y-41464664I314663J-314663D01*
G01*
X155172559Y-41931354D01*
G75*
G02*
X155172559Y-42560680I-314663J-314663D01*
G01*
X155172559Y-42560680D01*
G75*
G02*
X154543233Y-42560680I-314663J314663D01*
G01*
G37*
G04 #@! TD.AperFunction*
G04 #@! TA.AperFunction,ComponentPad*
G36*
G01*
X160334438Y-40121162D02*
X160334438Y-40121162D01*
G75*
G02*
X160334438Y-39449410I335876J335876D01*
G01*
X160546570Y-39237278D01*
G75*
G02*
X161218322Y-39237278I335876J-335876D01*
G01*
X161218322Y-39237278D01*
G75*
G02*
X161218322Y-39909030I-335876J-335876D01*
G01*
X161006190Y-40121162D01*
G75*
G02*
X160334438Y-40121162I-335876J335876D01*
G01*
G37*
G04 #@! TD.AperFunction*
G04 #@! TA.AperFunction,ComponentPad*
G36*
G01*
X156798905Y-43656695D02*
X156798905Y-43656695D01*
G75*
G02*
X156798905Y-42984943I335876J335876D01*
G01*
X157011037Y-42772811D01*
G75*
G02*
X157682789Y-42772811I335876J-335876D01*
G01*
X157682789Y-42772811D01*
G75*
G02*
X157682789Y-43444563I-335876J-335876D01*
G01*
X157470657Y-43656695D01*
G75*
G02*
X156798905Y-43656695I-335876J335876D01*
G01*
G37*
G04 #@! TD.AperFunction*
G04 #@! TA.AperFunction,SMDPad,CuDef*
G36*
G01*
X180423665Y-93717821D02*
X180898665Y-93717821D01*
G75*
G02*
X181136165Y-93955321I0J-237500D01*
G01*
X181136165Y-94455321D01*
G75*
G02*
X180898665Y-94692821I-237500J0D01*
G01*
X180423665Y-94692821D01*
G75*
G02*
X180186165Y-94455321I0J237500D01*
G01*
X180186165Y-93955321D01*
G75*
G02*
X180423665Y-93717821I237500J0D01*
G01*
G37*
G04 #@! TD.AperFunction*
G04 #@! TA.AperFunction,SMDPad,CuDef*
G36*
G01*
X180423665Y-91892821D02*
X180898665Y-91892821D01*
G75*
G02*
X181136165Y-92130321I0J-237500D01*
G01*
X181136165Y-92630321D01*
G75*
G02*
X180898665Y-92867821I-237500J0D01*
G01*
X180423665Y-92867821D01*
G75*
G02*
X180186165Y-92630321I0J237500D01*
G01*
X180186165Y-92130321D01*
G75*
G02*
X180423665Y-91892821I237500J0D01*
G01*
G37*
G04 #@! TD.AperFunction*
G04 #@! TA.AperFunction,SMDPad,CuDef*
G36*
G01*
X166281530Y-93717821D02*
X166756530Y-93717821D01*
G75*
G02*
X166994030Y-93955321I0J-237500D01*
G01*
X166994030Y-94455321D01*
G75*
G02*
X166756530Y-94692821I-237500J0D01*
G01*
X166281530Y-94692821D01*
G75*
G02*
X166044030Y-94455321I0J237500D01*
G01*
X166044030Y-93955321D01*
G75*
G02*
X166281530Y-93717821I237500J0D01*
G01*
G37*
G04 #@! TD.AperFunction*
G04 #@! TA.AperFunction,SMDPad,CuDef*
G36*
G01*
X166281530Y-91892821D02*
X166756530Y-91892821D01*
G75*
G02*
X166994030Y-92130321I0J-237500D01*
G01*
X166994030Y-92630321D01*
G75*
G02*
X166756530Y-92867821I-237500J0D01*
G01*
X166281530Y-92867821D01*
G75*
G02*
X166044030Y-92630321I0J237500D01*
G01*
X166044030Y-92130321D01*
G75*
G02*
X166281530Y-91892821I237500J0D01*
G01*
G37*
G04 #@! TD.AperFunction*
G04 #@! TA.AperFunction,SMDPad,CuDef*
G36*
G01*
X156696248Y-83361219D02*
X156696248Y-83836219D01*
G75*
G02*
X156458748Y-84073719I-237500J0D01*
G01*
X155958748Y-84073719D01*
G75*
G02*
X155721248Y-83836219I0J237500D01*
G01*
X155721248Y-83361219D01*
G75*
G02*
X155958748Y-83123719I237500J0D01*
G01*
X156458748Y-83123719D01*
G75*
G02*
X156696248Y-83361219I0J-237500D01*
G01*
G37*
G04 #@! TD.AperFunction*
G04 #@! TA.AperFunction,SMDPad,CuDef*
G36*
G01*
X158521248Y-83361219D02*
X158521248Y-83836219D01*
G75*
G02*
X158283748Y-84073719I-237500J0D01*
G01*
X157783748Y-84073719D01*
G75*
G02*
X157546248Y-83836219I0J237500D01*
G01*
X157546248Y-83361219D01*
G75*
G02*
X157783748Y-83123719I237500J0D01*
G01*
X158283748Y-83123719D01*
G75*
G02*
X158521248Y-83361219I0J-237500D01*
G01*
G37*
G04 #@! TD.AperFunction*
G04 #@! TA.AperFunction,SMDPad,CuDef*
G36*
G01*
X156696248Y-69219084D02*
X156696248Y-69694084D01*
G75*
G02*
X156458748Y-69931584I-237500J0D01*
G01*
X155958748Y-69931584D01*
G75*
G02*
X155721248Y-69694084I0J237500D01*
G01*
X155721248Y-69219084D01*
G75*
G02*
X155958748Y-68981584I237500J0D01*
G01*
X156458748Y-68981584D01*
G75*
G02*
X156696248Y-69219084I0J-237500D01*
G01*
G37*
G04 #@! TD.AperFunction*
G04 #@! TA.AperFunction,SMDPad,CuDef*
G36*
G01*
X158521248Y-69219084D02*
X158521248Y-69694084D01*
G75*
G02*
X158283748Y-69931584I-237500J0D01*
G01*
X157783748Y-69931584D01*
G75*
G02*
X157546248Y-69694084I0J237500D01*
G01*
X157546248Y-69219084D01*
G75*
G02*
X157783748Y-68981584I237500J0D01*
G01*
X158283748Y-68981584D01*
G75*
G02*
X158521248Y-69219084I0J-237500D01*
G01*
G37*
G04 #@! TD.AperFunction*
G04 #@! TA.AperFunction,ComponentPad*
G36*
G01*
X163711815Y-82757263D02*
X163711815Y-82757263D01*
G75*
G02*
X163711815Y-81555181I601041J601041D01*
G01*
X163711815Y-81555181D01*
G75*
G02*
X164913897Y-81555181I601041J-601041D01*
G01*
X164913897Y-81555181D01*
G75*
G02*
X164913897Y-82757263I-601041J-601041D01*
G01*
X164913897Y-82757263D01*
G75*
G02*
X163711815Y-82757263I-601041J601041D01*
G01*
G37*
G04 #@! TD.AperFunction*
G04 #@! TA.AperFunction,ComponentPad*
G36*
G01*
X165507867Y-80961212D02*
X165507867Y-80961212D01*
G75*
G02*
X165507867Y-79759130I601041J601041D01*
G01*
X165507867Y-79759130D01*
G75*
G02*
X166709949Y-79759130I601041J-601041D01*
G01*
X166709949Y-79759130D01*
G75*
G02*
X166709949Y-80961212I-601041J-601041D01*
G01*
X166709949Y-80961212D01*
G75*
G02*
X165507867Y-80961212I-601041J601041D01*
G01*
G37*
G04 #@! TD.AperFunction*
G04 #@! TA.AperFunction,ComponentPad*
G36*
G01*
X165507867Y-84553314D02*
X165507867Y-84553314D01*
G75*
G02*
X165507867Y-83351232I601041J601041D01*
G01*
X165507867Y-83351232D01*
G75*
G02*
X166709949Y-83351232I601041J-601041D01*
G01*
X166709949Y-83351232D01*
G75*
G02*
X166709949Y-84553314I-601041J-601041D01*
G01*
X166709949Y-84553314D01*
G75*
G02*
X165507867Y-84553314I-601041J601041D01*
G01*
G37*
G04 #@! TD.AperFunction*
G04 #@! TA.AperFunction,ComponentPad*
G36*
G01*
X167303918Y-82757263D02*
X167303918Y-82757263D01*
G75*
G02*
X167303918Y-81555181I601041J601041D01*
G01*
X167303918Y-81555181D01*
G75*
G02*
X168506000Y-81555181I601041J-601041D01*
G01*
X168506000Y-81555181D01*
G75*
G02*
X168506000Y-82757263I-601041J-601041D01*
G01*
X168506000Y-82757263D01*
G75*
G02*
X167303918Y-82757263I-601041J601041D01*
G01*
G37*
G04 #@! TD.AperFunction*
G04 #@! TA.AperFunction,ComponentPad*
G36*
G01*
X167303918Y-86349365D02*
X167303918Y-86349365D01*
G75*
G02*
X167303918Y-85147283I601041J601041D01*
G01*
X167303918Y-85147283D01*
G75*
G02*
X168506000Y-85147283I601041J-601041D01*
G01*
X168506000Y-85147283D01*
G75*
G02*
X168506000Y-86349365I-601041J-601041D01*
G01*
X168506000Y-86349365D01*
G75*
G02*
X167303918Y-86349365I-601041J601041D01*
G01*
G37*
G04 #@! TD.AperFunction*
G04 #@! TA.AperFunction,ComponentPad*
D10*
G36*
X169701010Y-85154355D02*
G01*
X168498928Y-83952273D01*
X169701010Y-82750191D01*
X170903092Y-83952273D01*
X169701010Y-85154355D01*
G37*
G04 #@! TD.AperFunction*
G04 #@! TA.AperFunction,ComponentPad*
G36*
G01*
X177846881Y-69470727D02*
X177846881Y-69470727D01*
G75*
G02*
X179402515Y-69470727I777817J-777817D01*
G01*
X179402515Y-69470727D01*
G75*
G02*
X179402515Y-71026361I-777817J-777817D01*
G01*
X179402515Y-71026361D01*
G75*
G02*
X177846881Y-71026361I-777817J777817D01*
G01*
X177846881Y-71026361D01*
G75*
G02*
X177846881Y-69470727I777817J777817D01*
G01*
G37*
G04 #@! TD.AperFunction*
G04 #@! TA.AperFunction,ComponentPad*
G36*
X171680909Y-64860390D02*
G01*
X173236544Y-63304755D01*
X174792179Y-64860390D01*
X173236544Y-66416025D01*
X171680909Y-64860390D01*
G37*
G04 #@! TD.AperFunction*
G04 #@! TA.AperFunction,ComponentPad*
G36*
G01*
X180675308Y-66642300D02*
X180675308Y-66642300D01*
G75*
G02*
X182230942Y-66642300I777817J-777817D01*
G01*
X182230942Y-66642300D01*
G75*
G02*
X182230942Y-68197934I-777817J-777817D01*
G01*
X182230942Y-68197934D01*
G75*
G02*
X180675308Y-68197934I-777817J777817D01*
G01*
X180675308Y-68197934D01*
G75*
G02*
X180675308Y-66642300I777817J777817D01*
G01*
G37*
G04 #@! TD.AperFunction*
G04 #@! TA.AperFunction,ComponentPad*
G36*
X174509336Y-62031963D02*
G01*
X176064971Y-60476328D01*
X177620606Y-62031963D01*
X176064971Y-63587598D01*
X174509336Y-62031963D01*
G37*
G04 #@! TD.AperFunction*
G04 #@! TA.AperFunction,ComponentPad*
G36*
G01*
X169488879Y-78083287D02*
X169488879Y-78083287D01*
G75*
G02*
X170620249Y-78083287I565685J-565685D01*
G01*
X170620249Y-78083287D01*
G75*
G02*
X170620249Y-79214657I-565685J-565685D01*
G01*
X170620249Y-79214657D01*
G75*
G02*
X169488879Y-79214657I-565685J565685D01*
G01*
X169488879Y-79214657D01*
G75*
G02*
X169488879Y-78083287I565685J565685D01*
G01*
G37*
G04 #@! TD.AperFunction*
G04 #@! TA.AperFunction,ComponentPad*
G36*
G01*
X169488879Y-67306979D02*
X169488879Y-67306979D01*
G75*
G02*
X170620249Y-67306979I565685J-565685D01*
G01*
X170620249Y-67306979D01*
G75*
G02*
X170620249Y-68438349I-565685J-565685D01*
G01*
X170620249Y-68438349D01*
G75*
G02*
X169488879Y-68438349I-565685J565685D01*
G01*
X169488879Y-68438349D01*
G75*
G02*
X169488879Y-67306979I565685J565685D01*
G01*
G37*
G04 #@! TD.AperFunction*
G04 #@! TA.AperFunction,ComponentPad*
G36*
G01*
X171284930Y-76287235D02*
X171284930Y-76287235D01*
G75*
G02*
X172416300Y-76287235I565685J-565685D01*
G01*
X172416300Y-76287235D01*
G75*
G02*
X172416300Y-77418605I-565685J-565685D01*
G01*
X172416300Y-77418605D01*
G75*
G02*
X171284930Y-77418605I-565685J565685D01*
G01*
X171284930Y-77418605D01*
G75*
G02*
X171284930Y-76287235I565685J565685D01*
G01*
G37*
G04 #@! TD.AperFunction*
G04 #@! TA.AperFunction,ComponentPad*
G36*
G01*
X167692827Y-69103031D02*
X167692827Y-69103031D01*
G75*
G02*
X168824197Y-69103031I565685J-565685D01*
G01*
X168824197Y-69103031D01*
G75*
G02*
X168824197Y-70234401I-565685J-565685D01*
G01*
X168824197Y-70234401D01*
G75*
G02*
X167692827Y-70234401I-565685J565685D01*
G01*
X167692827Y-70234401D01*
G75*
G02*
X167692827Y-69103031I565685J565685D01*
G01*
G37*
G04 #@! TD.AperFunction*
G04 #@! TA.AperFunction,ComponentPad*
G36*
G01*
X173080981Y-74491184D02*
X173080981Y-74491184D01*
G75*
G02*
X174212351Y-74491184I565685J-565685D01*
G01*
X174212351Y-74491184D01*
G75*
G02*
X174212351Y-75622554I-565685J-565685D01*
G01*
X174212351Y-75622554D01*
G75*
G02*
X173080981Y-75622554I-565685J565685D01*
G01*
X173080981Y-75622554D01*
G75*
G02*
X173080981Y-74491184I565685J565685D01*
G01*
G37*
G04 #@! TD.AperFunction*
G04 #@! TA.AperFunction,ComponentPad*
G36*
G01*
X165896776Y-70899082D02*
X165896776Y-70899082D01*
G75*
G02*
X167028146Y-70899082I565685J-565685D01*
G01*
X167028146Y-70899082D01*
G75*
G02*
X167028146Y-72030452I-565685J-565685D01*
G01*
X167028146Y-72030452D01*
G75*
G02*
X165896776Y-72030452I-565685J565685D01*
G01*
X165896776Y-72030452D01*
G75*
G02*
X165896776Y-70899082I565685J565685D01*
G01*
G37*
G04 #@! TD.AperFunction*
G04 #@! TA.AperFunction,ComponentPad*
G36*
G01*
X174877032Y-72695133D02*
X174877032Y-72695133D01*
G75*
G02*
X176008402Y-72695133I565685J-565685D01*
G01*
X176008402Y-72695133D01*
G75*
G02*
X176008402Y-73826503I-565685J-565685D01*
G01*
X176008402Y-73826503D01*
G75*
G02*
X174877032Y-73826503I-565685J565685D01*
G01*
X174877032Y-73826503D01*
G75*
G02*
X174877032Y-72695133I565685J565685D01*
G01*
G37*
G04 #@! TD.AperFunction*
G04 #@! TA.AperFunction,ComponentPad*
G36*
X163535039Y-73260818D02*
G01*
X164666410Y-72129447D01*
X165797781Y-73260818D01*
X164666410Y-74392189D01*
X163535039Y-73260818D01*
G37*
G04 #@! TD.AperFunction*
D11*
X167933243Y-53900235D03*
X164751262Y-57082215D03*
X172529437Y-58496429D03*
X169347456Y-61678410D03*
G04 #@! TA.AperFunction,ComponentPad*
G36*
G01*
X178766120Y-52005189D02*
X178766120Y-52005189D01*
G75*
G02*
X179897490Y-52005189I565685J-565685D01*
G01*
X179897490Y-52005189D01*
G75*
G02*
X179897490Y-53136559I-565685J-565685D01*
G01*
X179897490Y-53136559D01*
G75*
G02*
X178766120Y-53136559I-565685J565685D01*
G01*
X178766120Y-53136559D01*
G75*
G02*
X178766120Y-52005189I565685J565685D01*
G01*
G37*
G04 #@! TD.AperFunction*
D12*
X173943651Y-47182720D03*
G04 #@! TA.AperFunction,ComponentPad*
G36*
G01*
X171327355Y-50930385D02*
X171327355Y-50930385D01*
G75*
G02*
X170195985Y-50930385I-565685J565685D01*
G01*
X170195985Y-50930385D01*
G75*
G02*
X170195985Y-49799015I565685J565685D01*
G01*
X170195985Y-49799015D01*
G75*
G02*
X171327355Y-49799015I565685J-565685D01*
G01*
X171327355Y-49799015D01*
G75*
G02*
X171327355Y-50930385I-565685J-565685D01*
G01*
G37*
G04 #@! TD.AperFunction*
X176149824Y-55752854D03*
G04 #@! TA.AperFunction,ComponentPad*
G36*
G01*
X183008761Y-54381066D02*
X183008761Y-54381066D01*
G75*
G02*
X183008761Y-53249696I565685J565685D01*
G01*
X183008761Y-53249696D01*
G75*
G02*
X184140131Y-53249696I565685J-565685D01*
G01*
X184140131Y-53249696D01*
G75*
G02*
X184140131Y-54381066I-565685J-565685D01*
G01*
X184140131Y-54381066D01*
G75*
G02*
X183008761Y-54381066I-565685J565685D01*
G01*
G37*
G04 #@! TD.AperFunction*
X178186292Y-59203535D03*
D13*
X180661165Y-97033748D03*
D12*
X180661165Y-89413748D03*
D13*
X166519030Y-97033748D03*
D12*
X166519030Y-89413748D03*
D13*
X153084001Y-83598719D03*
D12*
X160704001Y-83598719D03*
D13*
X153084001Y-69456584D03*
D12*
X160704001Y-69456584D03*
G04 #@! TA.AperFunction,ComponentPad*
G36*
G01*
X156810454Y-98426749D02*
X156810454Y-98426749D01*
G75*
G02*
X156810454Y-97224667I601041J601041D01*
G01*
X156810454Y-97224667D01*
G75*
G02*
X158012536Y-97224667I601041J-601041D01*
G01*
X158012536Y-97224667D01*
G75*
G02*
X158012536Y-98426749I-601041J-601041D01*
G01*
X158012536Y-98426749D01*
G75*
G02*
X156810454Y-98426749I-601041J601041D01*
G01*
G37*
G04 #@! TD.AperFunction*
G04 #@! TA.AperFunction,ComponentPad*
G36*
G01*
X155014402Y-96630697D02*
X155014402Y-96630697D01*
G75*
G02*
X155014402Y-95428615I601041J601041D01*
G01*
X155014402Y-95428615D01*
G75*
G02*
X156216484Y-95428615I601041J-601041D01*
G01*
X156216484Y-95428615D01*
G75*
G02*
X156216484Y-96630697I-601041J-601041D01*
G01*
X156216484Y-96630697D01*
G75*
G02*
X155014402Y-96630697I-601041J601041D01*
G01*
G37*
G04 #@! TD.AperFunction*
G04 #@! TA.AperFunction,ComponentPad*
G36*
G01*
X153218351Y-94834646D02*
X153218351Y-94834646D01*
G75*
G02*
X153218351Y-93632564I601041J601041D01*
G01*
X153218351Y-93632564D01*
G75*
G02*
X154420433Y-93632564I601041J-601041D01*
G01*
X154420433Y-93632564D01*
G75*
G02*
X154420433Y-94834646I-601041J-601041D01*
G01*
X154420433Y-94834646D01*
G75*
G02*
X153218351Y-94834646I-601041J601041D01*
G01*
G37*
G04 #@! TD.AperFunction*
G04 #@! TA.AperFunction,ComponentPad*
D10*
G36*
X152023341Y-93639636D02*
G01*
X150821259Y-92437554D01*
X152023341Y-91235472D01*
X153225423Y-92437554D01*
X152023341Y-93639636D01*
G37*
G04 #@! TD.AperFunction*
G04 #@! TA.AperFunction,SMDPad,CuDef*
G36*
G01*
X153907161Y-77063312D02*
X154382161Y-77063312D01*
G75*
G02*
X154619661Y-77300812I0J-237500D01*
G01*
X154619661Y-77875812D01*
G75*
G02*
X154382161Y-78113312I-237500J0D01*
G01*
X153907161Y-78113312D01*
G75*
G02*
X153669661Y-77875812I0J237500D01*
G01*
X153669661Y-77300812D01*
G75*
G02*
X153907161Y-77063312I237500J0D01*
G01*
G37*
G04 #@! TD.AperFunction*
G04 #@! TA.AperFunction,SMDPad,CuDef*
G36*
G01*
X153907161Y-75313312D02*
X154382161Y-75313312D01*
G75*
G02*
X154619661Y-75550812I0J-237500D01*
G01*
X154619661Y-76125812D01*
G75*
G02*
X154382161Y-76363312I-237500J0D01*
G01*
X153907161Y-76363312D01*
G75*
G02*
X153669661Y-76125812I0J237500D01*
G01*
X153669661Y-75550812D01*
G75*
G02*
X153907161Y-75313312I237500J0D01*
G01*
G37*
G04 #@! TD.AperFunction*
G04 #@! TA.AperFunction,SMDPad,CuDef*
G36*
G01*
X153907161Y-62921177D02*
X154382161Y-62921177D01*
G75*
G02*
X154619661Y-63158677I0J-237500D01*
G01*
X154619661Y-63733677D01*
G75*
G02*
X154382161Y-63971177I-237500J0D01*
G01*
X153907161Y-63971177D01*
G75*
G02*
X153669661Y-63733677I0J237500D01*
G01*
X153669661Y-63158677D01*
G75*
G02*
X153907161Y-62921177I237500J0D01*
G01*
G37*
G04 #@! TD.AperFunction*
G04 #@! TA.AperFunction,SMDPad,CuDef*
G36*
G01*
X153907161Y-61171177D02*
X154382161Y-61171177D01*
G75*
G02*
X154619661Y-61408677I0J-237500D01*
G01*
X154619661Y-61983677D01*
G75*
G02*
X154382161Y-62221177I-237500J0D01*
G01*
X153907161Y-62221177D01*
G75*
G02*
X153669661Y-61983677I0J237500D01*
G01*
X153669661Y-61408677D01*
G75*
G02*
X153907161Y-61171177I237500J0D01*
G01*
G37*
G04 #@! TD.AperFunction*
G04 #@! TA.AperFunction,SMDPad,CuDef*
G36*
G01*
X153907161Y-48779041D02*
X154382161Y-48779041D01*
G75*
G02*
X154619661Y-49016541I0J-237500D01*
G01*
X154619661Y-49591541D01*
G75*
G02*
X154382161Y-49829041I-237500J0D01*
G01*
X153907161Y-49829041D01*
G75*
G02*
X153669661Y-49591541I0J237500D01*
G01*
X153669661Y-49016541D01*
G75*
G02*
X153907161Y-48779041I237500J0D01*
G01*
G37*
G04 #@! TD.AperFunction*
G04 #@! TA.AperFunction,SMDPad,CuDef*
G36*
G01*
X153907161Y-47029041D02*
X154382161Y-47029041D01*
G75*
G02*
X154619661Y-47266541I0J-237500D01*
G01*
X154619661Y-47841541D01*
G75*
G02*
X154382161Y-48079041I-237500J0D01*
G01*
X153907161Y-48079041D01*
G75*
G02*
X153669661Y-47841541I0J237500D01*
G01*
X153669661Y-47266541D01*
G75*
G02*
X153907161Y-47029041I237500J0D01*
G01*
G37*
G04 #@! TD.AperFunction*
D14*
X156265981Y-78006991D03*
D15*
X156265981Y-75466991D03*
D14*
X156265981Y-63864856D03*
D15*
X156265981Y-61324856D03*
D14*
X156265981Y-49722720D03*
D15*
X156265981Y-47182720D03*
G04 #@! TA.AperFunction,SMDPad,CuDef*
G36*
G01*
X166368770Y-38158269D02*
X166704646Y-38494145D01*
G75*
G02*
X166704646Y-38830021I-167938J-167938D01*
G01*
X166298060Y-39236607D01*
G75*
G02*
X165962184Y-39236607I-167938J167938D01*
G01*
X165626308Y-38900731D01*
G75*
G02*
X165626308Y-38564855I167938J167938D01*
G01*
X166032894Y-38158269D01*
G75*
G02*
X166368770Y-38158269I167938J-167938D01*
G01*
G37*
G04 #@! TD.AperFunction*
G04 #@! TA.AperFunction,SMDPad,CuDef*
G36*
G01*
X167606206Y-36920833D02*
X167942082Y-37256709D01*
G75*
G02*
X167942082Y-37592585I-167938J-167938D01*
G01*
X167535496Y-37999171D01*
G75*
G02*
X167199620Y-37999171I-167938J167938D01*
G01*
X166863744Y-37663295D01*
G75*
G02*
X166863744Y-37327419I167938J167938D01*
G01*
X167270330Y-36920833D01*
G75*
G02*
X167606206Y-36920833I167938J-167938D01*
G01*
G37*
G04 #@! TD.AperFunction*
G04 #@! TA.AperFunction,SMDPad,CuDef*
G36*
G01*
X184894967Y-43620670D02*
X185230843Y-43284794D01*
G75*
G02*
X185566719Y-43284794I167938J-167938D01*
G01*
X185973305Y-43691380D01*
G75*
G02*
X185973305Y-44027256I-167938J-167938D01*
G01*
X185637429Y-44363132D01*
G75*
G02*
X185301553Y-44363132I-167938J167938D01*
G01*
X184894967Y-43956546D01*
G75*
G02*
X184894967Y-43620670I167938J167938D01*
G01*
G37*
G04 #@! TD.AperFunction*
G04 #@! TA.AperFunction,SMDPad,CuDef*
G36*
G01*
X183657531Y-42383234D02*
X183993407Y-42047358D01*
G75*
G02*
X184329283Y-42047358I167938J-167938D01*
G01*
X184735869Y-42453944D01*
G75*
G02*
X184735869Y-42789820I-167938J-167938D01*
G01*
X184399993Y-43125696D01*
G75*
G02*
X184064117Y-43125696I-167938J167938D01*
G01*
X183657531Y-42719110D01*
G75*
G02*
X183657531Y-42383234I167938J167938D01*
G01*
G37*
G04 #@! TD.AperFunction*
G04 #@! TA.AperFunction,SMDPad,CuDef*
G36*
G01*
X190021491Y-60768009D02*
X190357367Y-60432133D01*
G75*
G02*
X190693243Y-60432133I167938J-167938D01*
G01*
X191099829Y-60838719D01*
G75*
G02*
X191099829Y-61174595I-167938J-167938D01*
G01*
X190763953Y-61510471D01*
G75*
G02*
X190428077Y-61510471I-167938J167938D01*
G01*
X190021491Y-61103885D01*
G75*
G02*
X190021491Y-60768009I167938J167938D01*
G01*
G37*
G04 #@! TD.AperFunction*
G04 #@! TA.AperFunction,SMDPad,CuDef*
G36*
G01*
X188784055Y-59530573D02*
X189119931Y-59194697D01*
G75*
G02*
X189455807Y-59194697I167938J-167938D01*
G01*
X189862393Y-59601283D01*
G75*
G02*
X189862393Y-59937159I-167938J-167938D01*
G01*
X189526517Y-60273035D01*
G75*
G02*
X189190641Y-60273035I-167938J167938D01*
G01*
X188784055Y-59866449D01*
G75*
G02*
X188784055Y-59530573I167938J167938D01*
G01*
G37*
G04 #@! TD.AperFunction*
D14*
X167197852Y-40493490D03*
G04 #@! TA.AperFunction,ComponentPad*
D10*
G36*
X168993903Y-37424647D02*
G01*
X170266695Y-38697439D01*
X168993903Y-39970231D01*
X167721111Y-38697439D01*
X168993903Y-37424647D01*
G37*
G04 #@! TD.AperFunction*
D14*
X184224983Y-45443237D03*
G04 #@! TA.AperFunction,ComponentPad*
D10*
G36*
X181156140Y-43647186D02*
G01*
X182428932Y-42374394D01*
X183701724Y-43647186D01*
X182428932Y-44919978D01*
X181156140Y-43647186D01*
G37*
G04 #@! TD.AperFunction*
D14*
X186289735Y-63828014D03*
G04 #@! TA.AperFunction,ComponentPad*
D10*
G36*
X188085786Y-60759171D02*
G01*
X189358578Y-62031963D01*
X188085786Y-63304755D01*
X186812994Y-62031963D01*
X188085786Y-60759171D01*
G37*
G04 #@! TD.AperFunction*
G04 #@! TA.AperFunction,SMDPad,CuDef*
G36*
G01*
X206832955Y-64886906D02*
X206497079Y-65222782D01*
G75*
G02*
X206161203Y-65222782I-167938J167938D01*
G01*
X205754617Y-64816196D01*
G75*
G02*
X205754617Y-64480320I167938J167938D01*
G01*
X206090493Y-64144444D01*
G75*
G02*
X206426369Y-64144444I167938J-167938D01*
G01*
X206832955Y-64551030D01*
G75*
G02*
X206832955Y-64886906I-167938J-167938D01*
G01*
G37*
G04 #@! TD.AperFunction*
G04 #@! TA.AperFunction,SMDPad,CuDef*
G36*
G01*
X208070391Y-66124342D02*
X207734515Y-66460218D01*
G75*
G02*
X207398639Y-66460218I-167938J167938D01*
G01*
X206992053Y-66053632D01*
G75*
G02*
X206992053Y-65717756I167938J167938D01*
G01*
X207327929Y-65381880D01*
G75*
G02*
X207663805Y-65381880I167938J-167938D01*
G01*
X208070391Y-65788466D01*
G75*
G02*
X208070391Y-66124342I-167938J-167938D01*
G01*
G37*
G04 #@! TD.AperFunction*
G04 #@! TA.AperFunction,SMDPad,CuDef*
G36*
G01*
X211446827Y-83589880D02*
X211782703Y-83925756D01*
G75*
G02*
X211782703Y-84261632I-167938J-167938D01*
G01*
X211376117Y-84668218D01*
G75*
G02*
X211040241Y-84668218I-167938J167938D01*
G01*
X210704365Y-84332342D01*
G75*
G02*
X210704365Y-83996466I167938J167938D01*
G01*
X211110951Y-83589880D01*
G75*
G02*
X211446827Y-83589880I167938J-167938D01*
G01*
G37*
G04 #@! TD.AperFunction*
G04 #@! TA.AperFunction,SMDPad,CuDef*
G36*
G01*
X212684263Y-82352444D02*
X213020139Y-82688320D01*
G75*
G02*
X213020139Y-83024196I-167938J-167938D01*
G01*
X212613553Y-83430782D01*
G75*
G02*
X212277677Y-83430782I-167938J167938D01*
G01*
X211941801Y-83094906D01*
G75*
G02*
X211941801Y-82759030I167938J167938D01*
G01*
X212348387Y-82352444D01*
G75*
G02*
X212684263Y-82352444I167938J-167938D01*
G01*
G37*
G04 #@! TD.AperFunction*
G04 #@! TA.AperFunction,SMDPad,CuDef*
G36*
G01*
X201338708Y-95735588D02*
X201338708Y-96210588D01*
G75*
G02*
X201101208Y-96448088I-237500J0D01*
G01*
X200526208Y-96448088D01*
G75*
G02*
X200288708Y-96210588I0J237500D01*
G01*
X200288708Y-95735588D01*
G75*
G02*
X200526208Y-95498088I237500J0D01*
G01*
X201101208Y-95498088D01*
G75*
G02*
X201338708Y-95735588I0J-237500D01*
G01*
G37*
G04 #@! TD.AperFunction*
G04 #@! TA.AperFunction,SMDPad,CuDef*
G36*
G01*
X203088708Y-95735588D02*
X203088708Y-96210588D01*
G75*
G02*
X202851208Y-96448088I-237500J0D01*
G01*
X202276208Y-96448088D01*
G75*
G02*
X202038708Y-96210588I0J237500D01*
G01*
X202038708Y-95735588D01*
G75*
G02*
X202276208Y-95498088I237500J0D01*
G01*
X202851208Y-95498088D01*
G75*
G02*
X203088708Y-95735588I0J-237500D01*
G01*
G37*
G04 #@! TD.AperFunction*
D14*
X204674512Y-65892766D03*
G04 #@! TA.AperFunction,ComponentPad*
D10*
G36*
X207743355Y-67688817D02*
G01*
X206470563Y-68961609D01*
X205197771Y-67688817D01*
X206470563Y-66416025D01*
X207743355Y-67688817D01*
G37*
G04 #@! TD.AperFunction*
D14*
X209624259Y-82919897D03*
G04 #@! TA.AperFunction,ComponentPad*
D10*
G36*
X211420310Y-79851054D02*
G01*
X212693102Y-81123846D01*
X211420310Y-82396638D01*
X210147518Y-81123846D01*
X211420310Y-79851054D01*
G37*
G04 #@! TD.AperFunction*
D14*
X200395029Y-93851768D03*
D15*
X202935029Y-93851768D03*
G04 #@! TA.AperFunction,SMDPad,CuDef*
G36*
G01*
X187196572Y-95735588D02*
X187196572Y-96210588D01*
G75*
G02*
X186959072Y-96448088I-237500J0D01*
G01*
X186384072Y-96448088D01*
G75*
G02*
X186146572Y-96210588I0J237500D01*
G01*
X186146572Y-95735588D01*
G75*
G02*
X186384072Y-95498088I237500J0D01*
G01*
X186959072Y-95498088D01*
G75*
G02*
X187196572Y-95735588I0J-237500D01*
G01*
G37*
G04 #@! TD.AperFunction*
G04 #@! TA.AperFunction,SMDPad,CuDef*
G36*
G01*
X188946572Y-95735588D02*
X188946572Y-96210588D01*
G75*
G02*
X188709072Y-96448088I-237500J0D01*
G01*
X188134072Y-96448088D01*
G75*
G02*
X187896572Y-96210588I0J237500D01*
G01*
X187896572Y-95735588D01*
G75*
G02*
X188134072Y-95498088I237500J0D01*
G01*
X188709072Y-95498088D01*
G75*
G02*
X188946572Y-95735588I0J-237500D01*
G01*
G37*
G04 #@! TD.AperFunction*
G04 #@! TA.AperFunction,SMDPad,CuDef*
G36*
G01*
X173054437Y-95735588D02*
X173054437Y-96210588D01*
G75*
G02*
X172816937Y-96448088I-237500J0D01*
G01*
X172241937Y-96448088D01*
G75*
G02*
X172004437Y-96210588I0J237500D01*
G01*
X172004437Y-95735588D01*
G75*
G02*
X172241937Y-95498088I237500J0D01*
G01*
X172816937Y-95498088D01*
G75*
G02*
X173054437Y-95735588I0J-237500D01*
G01*
G37*
G04 #@! TD.AperFunction*
G04 #@! TA.AperFunction,SMDPad,CuDef*
G36*
G01*
X174804437Y-95735588D02*
X174804437Y-96210588D01*
G75*
G02*
X174566937Y-96448088I-237500J0D01*
G01*
X173991937Y-96448088D01*
G75*
G02*
X173754437Y-96210588I0J237500D01*
G01*
X173754437Y-95735588D01*
G75*
G02*
X173991937Y-95498088I237500J0D01*
G01*
X174566937Y-95498088D01*
G75*
G02*
X174804437Y-95735588I0J-237500D01*
G01*
G37*
G04 #@! TD.AperFunction*
G04 #@! TA.AperFunction,SMDPad,CuDef*
G36*
G01*
X157052637Y-93560086D02*
X157388513Y-93224210D01*
G75*
G02*
X157724389Y-93224210I167938J-167938D01*
G01*
X158130975Y-93630796D01*
G75*
G02*
X158130975Y-93966672I-167938J-167938D01*
G01*
X157795099Y-94302548D01*
G75*
G02*
X157459223Y-94302548I-167938J167938D01*
G01*
X157052637Y-93895962D01*
G75*
G02*
X157052637Y-93560086I167938J167938D01*
G01*
G37*
G04 #@! TD.AperFunction*
G04 #@! TA.AperFunction,SMDPad,CuDef*
G36*
G01*
X155815201Y-92322650D02*
X156151077Y-91986774D01*
G75*
G02*
X156486953Y-91986774I167938J-167938D01*
G01*
X156893539Y-92393360D01*
G75*
G02*
X156893539Y-92729236I-167938J-167938D01*
G01*
X156557663Y-93065112D01*
G75*
G02*
X156221787Y-93065112I-167938J167938D01*
G01*
X155815201Y-92658526D01*
G75*
G02*
X155815201Y-92322650I167938J167938D01*
G01*
G37*
G04 #@! TD.AperFunction*
D14*
X186252893Y-93851768D03*
D15*
X188792893Y-93851768D03*
D14*
X172110758Y-93851768D03*
D15*
X174650758Y-93851768D03*
D14*
X160183353Y-89934396D03*
G04 #@! TA.AperFunction,ComponentPad*
D10*
G36*
X158387302Y-93003239D02*
G01*
X157114510Y-91730447D01*
X158387302Y-90457655D01*
X159660094Y-91730447D01*
X158387302Y-93003239D01*
G37*
G04 #@! TD.AperFunction*
D16*
X172529437Y-58496429D02*
X167933243Y-53900235D01*
X170054564Y-63027570D02*
X170054564Y-67872665D01*
X172529437Y-60552697D02*
X170054564Y-63027570D01*
X172529437Y-58496429D02*
X172529437Y-60552697D01*
X166060823Y-85748324D02*
X167904959Y-85748324D01*
X162957190Y-82644691D02*
X166060823Y-85748324D01*
X162957190Y-73196613D02*
X162957190Y-82644691D01*
X164602205Y-71551598D02*
X162957190Y-73196613D01*
X164775867Y-71551598D02*
X164602205Y-71551598D01*
X166375630Y-73151361D02*
X164775867Y-71551598D01*
X166375630Y-74970038D02*
X166375630Y-73151361D01*
X170054564Y-78648972D02*
X166375630Y-74970038D01*
X155894660Y-47554042D02*
X154144661Y-47554042D01*
X156265981Y-47182720D02*
X155894660Y-47554042D01*
X158033748Y-69456584D02*
X160704001Y-69456584D01*
X160183353Y-91849243D02*
X160183353Y-89934396D01*
X172529437Y-94270447D02*
X172529437Y-95973088D01*
X172110758Y-93851768D02*
X172529437Y-94270447D01*
X186671573Y-94270447D02*
X186671573Y-95973088D01*
X186252894Y-93851768D02*
X186671573Y-94270447D01*
X202563707Y-94223089D02*
X202563707Y-95973088D01*
X202935029Y-93851768D02*
X202563707Y-94223089D01*
X188085786Y-60971302D02*
X188085786Y-62031963D01*
X189323223Y-59733866D02*
X188085786Y-60971302D01*
X201634696Y-96902099D02*
X202563707Y-95973088D01*
X187600584Y-96902099D02*
X201634696Y-96902099D01*
X186671573Y-95973088D02*
X187600584Y-96902099D01*
X152507640Y-63930476D02*
X158033748Y-69456584D01*
X152507640Y-49191063D02*
X152507640Y-63930476D01*
X154144661Y-47554042D02*
X152507640Y-49191063D01*
X158269216Y-93763379D02*
X160183353Y-91849243D01*
X157591806Y-93763379D02*
X158269216Y-93763379D01*
X155894660Y-61696177D02*
X154144661Y-61696177D01*
X156265981Y-61324856D02*
X155894660Y-61696177D01*
X157149865Y-91730447D02*
X158387302Y-91730447D01*
X200813708Y-94270447D02*
X200813708Y-95973088D01*
X200395029Y-93851768D02*
X200813708Y-94270447D01*
X210034381Y-82919897D02*
X209624259Y-82919897D01*
X211243534Y-84129049D02*
X210034381Y-82919897D01*
X205084633Y-65892766D02*
X204674512Y-65892766D01*
X206293786Y-64683613D02*
X205084633Y-65892766D01*
X183136039Y-43647186D02*
X182428932Y-43647186D01*
X184196699Y-42586526D02*
X183136039Y-43647186D01*
X173043651Y-43647186D02*
X182428932Y-43647186D01*
X156265981Y-61324856D02*
X156265981Y-60424856D01*
X209624259Y-84622538D02*
X209624259Y-82919897D01*
X200395029Y-93851768D02*
X209624259Y-84622538D01*
X197603444Y-65892766D02*
X204674512Y-65892766D01*
X191267767Y-60264196D02*
X191974874Y-60264196D01*
X190128514Y-59124943D02*
X191267767Y-60264196D01*
X190128514Y-58417836D02*
X190128514Y-59124943D01*
X182428932Y-50718254D02*
X190128514Y-58417836D01*
X191974874Y-60264196D02*
X197603444Y-65892766D01*
X182428932Y-43647186D02*
X182428932Y-50718254D01*
X158033748Y-91376894D02*
X158387302Y-91730447D01*
X158033748Y-83598719D02*
X158033748Y-91376894D01*
X213543712Y-83142689D02*
X212557352Y-84129049D01*
X212557352Y-84129049D02*
X211243534Y-84129049D01*
X213543712Y-70619721D02*
X213543712Y-83142689D01*
X207607605Y-64683613D02*
X213543712Y-70619721D01*
X206293786Y-64683613D02*
X207607605Y-64683613D01*
X156265981Y-61324856D02*
X162724345Y-67783220D01*
X156354370Y-92525943D02*
X157149865Y-91730447D01*
X158033748Y-83598719D02*
X160704001Y-83598719D01*
X156265981Y-61324856D02*
X156265981Y-52839574D01*
X165458369Y-43647186D02*
X173043651Y-43647186D01*
X156265981Y-52839574D02*
X165458369Y-43647186D01*
X160704001Y-72231286D02*
X160704001Y-83598719D01*
X162724345Y-70210942D02*
X160704001Y-72231286D01*
X162724345Y-67783220D02*
X162724345Y-70210942D01*
X167197852Y-39729815D02*
X167197852Y-40493490D01*
X166165476Y-38697439D02*
X167197852Y-39729815D01*
X155894660Y-75838313D02*
X154144661Y-75838313D01*
X156265981Y-75466991D02*
X155894660Y-75838313D01*
X166519030Y-92380321D02*
X166519030Y-89413748D01*
X174279436Y-94223089D02*
X174279436Y-95973088D01*
X174650758Y-93851768D02*
X174279436Y-94223089D01*
X211420310Y-81830952D02*
X211420310Y-81123846D01*
X212480970Y-82891613D02*
X211420310Y-81830952D01*
X190560660Y-61471935D02*
X190560660Y-60971302D01*
X188204582Y-63828014D02*
X190560660Y-61471935D01*
X186289735Y-63828014D02*
X188204582Y-63828014D01*
X184224983Y-45033116D02*
X184224983Y-45443237D01*
X185434136Y-43823963D02*
X184224983Y-45033116D01*
X185434136Y-42510144D02*
X185434136Y-43823963D01*
X184447776Y-41523784D02*
X185434136Y-42510144D01*
X168228146Y-41523784D02*
X184447776Y-41523784D01*
X167197852Y-40493490D02*
X168228146Y-41523784D01*
X173179311Y-92380321D02*
X174650758Y-93851768D01*
X166519030Y-92380321D02*
X173179311Y-92380321D01*
X168640350Y-38697439D02*
X168993903Y-38697439D01*
X167402913Y-37460002D02*
X168640350Y-38697439D01*
X155847302Y-49304041D02*
X154144661Y-49304041D01*
X156265981Y-49722720D02*
X155847302Y-49304041D01*
X155847302Y-63446176D02*
X154144661Y-63446176D01*
X156265981Y-63864855D02*
X155847302Y-63446176D01*
X155847302Y-77588312D02*
X154144661Y-77588312D01*
X156265981Y-78006991D02*
X155847302Y-77588312D01*
X180661165Y-92380321D02*
X180661165Y-89413748D01*
X188421572Y-94223089D02*
X188421572Y-95973088D01*
X188792893Y-93851768D02*
X188421572Y-94223089D01*
X206470563Y-66981710D02*
X206470563Y-67688817D01*
X207531223Y-65921050D02*
X206470563Y-66981710D01*
X157619993Y-45929103D02*
X157619993Y-48368708D01*
X157619993Y-48368708D02*
X156265981Y-49722720D01*
X166089095Y-37460002D02*
X157619993Y-45929103D01*
X167402913Y-37460002D02*
X166089095Y-37460002D01*
X153215650Y-62517165D02*
X154144661Y-63446176D01*
X153215650Y-52773051D02*
X153215650Y-62517165D01*
X156265981Y-49722720D02*
X153215650Y-52773051D01*
X157538772Y-63864855D02*
X162016336Y-68342420D01*
X156265981Y-63864855D02*
X157538772Y-63864855D01*
X187321446Y-92380321D02*
X188792893Y-93851768D01*
X180661165Y-92380321D02*
X187321446Y-92380321D01*
X188792893Y-93851768D02*
X190207107Y-92437554D01*
X190207107Y-92437554D02*
X197278175Y-92437554D01*
X206470563Y-83245166D02*
X206470563Y-67688817D01*
X197278175Y-92437554D02*
X206470563Y-83245166D01*
X162016336Y-69917674D02*
X158387302Y-73546709D01*
X162016336Y-68342420D02*
X162016336Y-69917674D01*
X158387302Y-75885671D02*
X156265981Y-78006991D01*
X158387302Y-73546709D02*
X158387302Y-75885671D01*
X178186292Y-56015897D02*
X178186292Y-59203535D01*
X172535096Y-50364701D02*
X178186292Y-56015897D01*
X170761670Y-50364701D02*
X172535096Y-50364701D01*
X173236544Y-62379858D02*
X173236544Y-64860390D01*
X172170226Y-47182720D02*
X173943651Y-47182720D01*
X169449335Y-49903610D02*
X172170226Y-47182720D01*
X169449335Y-50825791D02*
X169449335Y-49903610D01*
X174051076Y-55427531D02*
X169449335Y-50825791D01*
X174051076Y-61565326D02*
X174051076Y-55427531D01*
X173236544Y-62379858D02*
X174051076Y-61565326D01*
X159618493Y-38521332D02*
X159618493Y-37107118D01*
X160820574Y-39723413D02*
X159618493Y-38521332D01*
X156082959Y-42056866D02*
X154668745Y-42056866D01*
X157285040Y-43258947D02*
X156082959Y-42056866D01*
X180661165Y-94205321D02*
X180661165Y-97033748D01*
X179019206Y-98675707D02*
X180661165Y-97033748D01*
X158261494Y-98675707D02*
X179019206Y-98675707D01*
X157411494Y-97825708D02*
X158261494Y-98675707D01*
X168258512Y-69668716D02*
X168258512Y-75079495D01*
X168258512Y-75079495D02*
X178893398Y-85714381D01*
X178893398Y-92437554D02*
X180661165Y-94205321D01*
X178893398Y-85714381D02*
X178893398Y-92437554D01*
X166519030Y-97033748D02*
X166519030Y-94205321D01*
X166519030Y-97033748D02*
X158740855Y-97033748D01*
X157736763Y-96029657D02*
X155615443Y-96029657D01*
X158740855Y-97033748D02*
X157736763Y-96029657D01*
X165206695Y-88952658D02*
X166057939Y-88101413D01*
X165206695Y-92892986D02*
X165206695Y-88952658D01*
X166519030Y-94205321D02*
X165206695Y-92892986D01*
X169749095Y-82156222D02*
X167904959Y-82156222D01*
X171480941Y-83888067D02*
X169749095Y-82156222D01*
X171480941Y-85017755D02*
X171480941Y-83888067D01*
X168397283Y-88101413D02*
X171480941Y-85017755D01*
X166057939Y-88101413D02*
X168397283Y-88101413D01*
X156208748Y-83598719D02*
X153084001Y-83598719D01*
X153084001Y-83598719D02*
X153084001Y-91376894D01*
X153819392Y-92112285D02*
X153819392Y-94233605D01*
X153084001Y-91376894D02*
X153819392Y-92112285D01*
X155663528Y-94233605D02*
X153819392Y-94233605D01*
X156751569Y-95321647D02*
X155663528Y-94233605D01*
X169701010Y-83952273D02*
X169701010Y-85796409D01*
X165640469Y-87393404D02*
X157712226Y-95321647D01*
X168104015Y-87393404D02*
X165640469Y-87393404D01*
X157712226Y-95321647D02*
X156751569Y-95321647D01*
X169701010Y-85796409D02*
X168104015Y-87393404D01*
X156208748Y-69456584D02*
X153084001Y-69456584D01*
X151771666Y-92185879D02*
X152023341Y-92437554D01*
X151771666Y-70768919D02*
X151771666Y-92185879D01*
X153084001Y-69456584D02*
X151771666Y-70768919D01*
X164666410Y-78917673D02*
X166108908Y-80360170D01*
X164666410Y-73260818D02*
X164666410Y-78917673D01*
M02*
