M48
INCH,TZ
T1C0.0197
T2C0.0217
T3C0.0315
T4C0.0354
T5C0.0394
T6C0.0433
%
G90
G05
T3
X60269Y-27345
X63269Y-27345
X70152Y-23308
X72273Y-21187
X60269Y-32913
X63269Y-32913
X65559Y-35202
X65559Y-38202
X71126Y-35202
X71126Y-38202
X67229Y-19829
X69350Y-21950
X64829Y-28843
X65536Y-28136
X66244Y-27429
X66951Y-26722
X66951Y-30964
X67658Y-30257
X68365Y-29550
X69072Y-28843
X68482Y-18576
X70603Y-20697
T4
X80581Y-25942
X81288Y-26649
X61522Y-24144
X61522Y-25144
X67760Y-36950
X68760Y-36950
X71822Y-17184
X72530Y-17891
X61522Y-18576
X61522Y-19576
X82529Y-32646
X83236Y-31939
X78896Y-36950
X79896Y-36950
X62357Y-36114
X63064Y-35407
X73342Y-25129
X74050Y-24422
X73328Y-36950
X74328Y-36950
X65826Y-15942
X66533Y-15235
X61522Y-29711
X61522Y-30711
T5
X64690Y-32345
X65397Y-31638
X65397Y-33052
X66104Y-32345
X66104Y-33759
X66811Y-33052
X59852Y-36393
X60559Y-37100
X61266Y-37807
X61973Y-38514
T6
X68203Y-25536
X70325Y-27657
X69317Y-24422
X71438Y-26543
X64863Y-22473
X66115Y-21221
X66672Y-24283
X67925Y-23030
T1
G00X60785Y-16450
M15
G01X60966Y-16631
M16
G05
G00X62734Y-14501
M15
G01X62915Y-14682
M16
G05
T2
G00X61864Y-17055
M15
G01X61948Y-16972
M16
G05
G00X63256Y-15663
M15
G01X63340Y-15580
M16
G05
T0
M30
