G04 #@! TF.GenerationSoftware,KiCad,Pcbnew,5.1.7-a382d34a88~90~ubuntu20.04.1*
G04 #@! TF.CreationDate,2022-01-21T18:01:13-05:00*
G04 #@! TF.ProjectId,cr2022012001-12-leds-board,63723230-3232-4303-9132-3030312d3132,rev?*
G04 #@! TF.SameCoordinates,Original*
G04 #@! TF.FileFunction,Paste,Top*
G04 #@! TF.FilePolarity,Positive*
%FSLAX46Y46*%
G04 Gerber Fmt 4.6, Leading zero omitted, Abs format (unit mm)*
G04 Created by KiCad (PCBNEW 5.1.7-a382d34a88~90~ubuntu20.04.1) date 2022-01-21 18:01:13*
%MOMM*%
%LPD*%
G01*
G04 APERTURE LIST*
G04 APERTURE END LIST*
G36*
G01*
X180423665Y-93717821D02*
X180898665Y-93717821D01*
G75*
G02*
X181136165Y-93955321I0J-237500D01*
G01*
X181136165Y-94455321D01*
G75*
G02*
X180898665Y-94692821I-237500J0D01*
G01*
X180423665Y-94692821D01*
G75*
G02*
X180186165Y-94455321I0J237500D01*
G01*
X180186165Y-93955321D01*
G75*
G02*
X180423665Y-93717821I237500J0D01*
G01*
G37*
G36*
G01*
X180423665Y-91892821D02*
X180898665Y-91892821D01*
G75*
G02*
X181136165Y-92130321I0J-237500D01*
G01*
X181136165Y-92630321D01*
G75*
G02*
X180898665Y-92867821I-237500J0D01*
G01*
X180423665Y-92867821D01*
G75*
G02*
X180186165Y-92630321I0J237500D01*
G01*
X180186165Y-92130321D01*
G75*
G02*
X180423665Y-91892821I237500J0D01*
G01*
G37*
G36*
G01*
X166281530Y-93717821D02*
X166756530Y-93717821D01*
G75*
G02*
X166994030Y-93955321I0J-237500D01*
G01*
X166994030Y-94455321D01*
G75*
G02*
X166756530Y-94692821I-237500J0D01*
G01*
X166281530Y-94692821D01*
G75*
G02*
X166044030Y-94455321I0J237500D01*
G01*
X166044030Y-93955321D01*
G75*
G02*
X166281530Y-93717821I237500J0D01*
G01*
G37*
G36*
G01*
X166281530Y-91892821D02*
X166756530Y-91892821D01*
G75*
G02*
X166994030Y-92130321I0J-237500D01*
G01*
X166994030Y-92630321D01*
G75*
G02*
X166756530Y-92867821I-237500J0D01*
G01*
X166281530Y-92867821D01*
G75*
G02*
X166044030Y-92630321I0J237500D01*
G01*
X166044030Y-92130321D01*
G75*
G02*
X166281530Y-91892821I237500J0D01*
G01*
G37*
G36*
G01*
X156696248Y-83361219D02*
X156696248Y-83836219D01*
G75*
G02*
X156458748Y-84073719I-237500J0D01*
G01*
X155958748Y-84073719D01*
G75*
G02*
X155721248Y-83836219I0J237500D01*
G01*
X155721248Y-83361219D01*
G75*
G02*
X155958748Y-83123719I237500J0D01*
G01*
X156458748Y-83123719D01*
G75*
G02*
X156696248Y-83361219I0J-237500D01*
G01*
G37*
G36*
G01*
X158521248Y-83361219D02*
X158521248Y-83836219D01*
G75*
G02*
X158283748Y-84073719I-237500J0D01*
G01*
X157783748Y-84073719D01*
G75*
G02*
X157546248Y-83836219I0J237500D01*
G01*
X157546248Y-83361219D01*
G75*
G02*
X157783748Y-83123719I237500J0D01*
G01*
X158283748Y-83123719D01*
G75*
G02*
X158521248Y-83361219I0J-237500D01*
G01*
G37*
G36*
G01*
X156696248Y-69219084D02*
X156696248Y-69694084D01*
G75*
G02*
X156458748Y-69931584I-237500J0D01*
G01*
X155958748Y-69931584D01*
G75*
G02*
X155721248Y-69694084I0J237500D01*
G01*
X155721248Y-69219084D01*
G75*
G02*
X155958748Y-68981584I237500J0D01*
G01*
X156458748Y-68981584D01*
G75*
G02*
X156696248Y-69219084I0J-237500D01*
G01*
G37*
G36*
G01*
X158521248Y-69219084D02*
X158521248Y-69694084D01*
G75*
G02*
X158283748Y-69931584I-237500J0D01*
G01*
X157783748Y-69931584D01*
G75*
G02*
X157546248Y-69694084I0J237500D01*
G01*
X157546248Y-69219084D01*
G75*
G02*
X157783748Y-68981584I237500J0D01*
G01*
X158283748Y-68981584D01*
G75*
G02*
X158521248Y-69219084I0J-237500D01*
G01*
G37*
G36*
G01*
X153907161Y-77063312D02*
X154382161Y-77063312D01*
G75*
G02*
X154619661Y-77300812I0J-237500D01*
G01*
X154619661Y-77875812D01*
G75*
G02*
X154382161Y-78113312I-237500J0D01*
G01*
X153907161Y-78113312D01*
G75*
G02*
X153669661Y-77875812I0J237500D01*
G01*
X153669661Y-77300812D01*
G75*
G02*
X153907161Y-77063312I237500J0D01*
G01*
G37*
G36*
G01*
X153907161Y-75313312D02*
X154382161Y-75313312D01*
G75*
G02*
X154619661Y-75550812I0J-237500D01*
G01*
X154619661Y-76125812D01*
G75*
G02*
X154382161Y-76363312I-237500J0D01*
G01*
X153907161Y-76363312D01*
G75*
G02*
X153669661Y-76125812I0J237500D01*
G01*
X153669661Y-75550812D01*
G75*
G02*
X153907161Y-75313312I237500J0D01*
G01*
G37*
G36*
G01*
X153907161Y-62921177D02*
X154382161Y-62921177D01*
G75*
G02*
X154619661Y-63158677I0J-237500D01*
G01*
X154619661Y-63733677D01*
G75*
G02*
X154382161Y-63971177I-237500J0D01*
G01*
X153907161Y-63971177D01*
G75*
G02*
X153669661Y-63733677I0J237500D01*
G01*
X153669661Y-63158677D01*
G75*
G02*
X153907161Y-62921177I237500J0D01*
G01*
G37*
G36*
G01*
X153907161Y-61171177D02*
X154382161Y-61171177D01*
G75*
G02*
X154619661Y-61408677I0J-237500D01*
G01*
X154619661Y-61983677D01*
G75*
G02*
X154382161Y-62221177I-237500J0D01*
G01*
X153907161Y-62221177D01*
G75*
G02*
X153669661Y-61983677I0J237500D01*
G01*
X153669661Y-61408677D01*
G75*
G02*
X153907161Y-61171177I237500J0D01*
G01*
G37*
G36*
G01*
X153907161Y-48779041D02*
X154382161Y-48779041D01*
G75*
G02*
X154619661Y-49016541I0J-237500D01*
G01*
X154619661Y-49591541D01*
G75*
G02*
X154382161Y-49829041I-237500J0D01*
G01*
X153907161Y-49829041D01*
G75*
G02*
X153669661Y-49591541I0J237500D01*
G01*
X153669661Y-49016541D01*
G75*
G02*
X153907161Y-48779041I237500J0D01*
G01*
G37*
G36*
G01*
X153907161Y-47029041D02*
X154382161Y-47029041D01*
G75*
G02*
X154619661Y-47266541I0J-237500D01*
G01*
X154619661Y-47841541D01*
G75*
G02*
X154382161Y-48079041I-237500J0D01*
G01*
X153907161Y-48079041D01*
G75*
G02*
X153669661Y-47841541I0J237500D01*
G01*
X153669661Y-47266541D01*
G75*
G02*
X153907161Y-47029041I237500J0D01*
G01*
G37*
G36*
G01*
X166368770Y-38158269D02*
X166704646Y-38494145D01*
G75*
G02*
X166704646Y-38830021I-167938J-167938D01*
G01*
X166298060Y-39236607D01*
G75*
G02*
X165962184Y-39236607I-167938J167938D01*
G01*
X165626308Y-38900731D01*
G75*
G02*
X165626308Y-38564855I167938J167938D01*
G01*
X166032894Y-38158269D01*
G75*
G02*
X166368770Y-38158269I167938J-167938D01*
G01*
G37*
G36*
G01*
X167606206Y-36920833D02*
X167942082Y-37256709D01*
G75*
G02*
X167942082Y-37592585I-167938J-167938D01*
G01*
X167535496Y-37999171D01*
G75*
G02*
X167199620Y-37999171I-167938J167938D01*
G01*
X166863744Y-37663295D01*
G75*
G02*
X166863744Y-37327419I167938J167938D01*
G01*
X167270330Y-36920833D01*
G75*
G02*
X167606206Y-36920833I167938J-167938D01*
G01*
G37*
G36*
G01*
X184894967Y-43620670D02*
X185230843Y-43284794D01*
G75*
G02*
X185566719Y-43284794I167938J-167938D01*
G01*
X185973305Y-43691380D01*
G75*
G02*
X185973305Y-44027256I-167938J-167938D01*
G01*
X185637429Y-44363132D01*
G75*
G02*
X185301553Y-44363132I-167938J167938D01*
G01*
X184894967Y-43956546D01*
G75*
G02*
X184894967Y-43620670I167938J167938D01*
G01*
G37*
G36*
G01*
X183657531Y-42383234D02*
X183993407Y-42047358D01*
G75*
G02*
X184329283Y-42047358I167938J-167938D01*
G01*
X184735869Y-42453944D01*
G75*
G02*
X184735869Y-42789820I-167938J-167938D01*
G01*
X184399993Y-43125696D01*
G75*
G02*
X184064117Y-43125696I-167938J167938D01*
G01*
X183657531Y-42719110D01*
G75*
G02*
X183657531Y-42383234I167938J167938D01*
G01*
G37*
G36*
G01*
X190021491Y-60768009D02*
X190357367Y-60432133D01*
G75*
G02*
X190693243Y-60432133I167938J-167938D01*
G01*
X191099829Y-60838719D01*
G75*
G02*
X191099829Y-61174595I-167938J-167938D01*
G01*
X190763953Y-61510471D01*
G75*
G02*
X190428077Y-61510471I-167938J167938D01*
G01*
X190021491Y-61103885D01*
G75*
G02*
X190021491Y-60768009I167938J167938D01*
G01*
G37*
G36*
G01*
X188784055Y-59530573D02*
X189119931Y-59194697D01*
G75*
G02*
X189455807Y-59194697I167938J-167938D01*
G01*
X189862393Y-59601283D01*
G75*
G02*
X189862393Y-59937159I-167938J-167938D01*
G01*
X189526517Y-60273035D01*
G75*
G02*
X189190641Y-60273035I-167938J167938D01*
G01*
X188784055Y-59866449D01*
G75*
G02*
X188784055Y-59530573I167938J167938D01*
G01*
G37*
G36*
G01*
X206832955Y-64886906D02*
X206497079Y-65222782D01*
G75*
G02*
X206161203Y-65222782I-167938J167938D01*
G01*
X205754617Y-64816196D01*
G75*
G02*
X205754617Y-64480320I167938J167938D01*
G01*
X206090493Y-64144444D01*
G75*
G02*
X206426369Y-64144444I167938J-167938D01*
G01*
X206832955Y-64551030D01*
G75*
G02*
X206832955Y-64886906I-167938J-167938D01*
G01*
G37*
G36*
G01*
X208070391Y-66124342D02*
X207734515Y-66460218D01*
G75*
G02*
X207398639Y-66460218I-167938J167938D01*
G01*
X206992053Y-66053632D01*
G75*
G02*
X206992053Y-65717756I167938J167938D01*
G01*
X207327929Y-65381880D01*
G75*
G02*
X207663805Y-65381880I167938J-167938D01*
G01*
X208070391Y-65788466D01*
G75*
G02*
X208070391Y-66124342I-167938J-167938D01*
G01*
G37*
G36*
G01*
X211446827Y-83589880D02*
X211782703Y-83925756D01*
G75*
G02*
X211782703Y-84261632I-167938J-167938D01*
G01*
X211376117Y-84668218D01*
G75*
G02*
X211040241Y-84668218I-167938J167938D01*
G01*
X210704365Y-84332342D01*
G75*
G02*
X210704365Y-83996466I167938J167938D01*
G01*
X211110951Y-83589880D01*
G75*
G02*
X211446827Y-83589880I167938J-167938D01*
G01*
G37*
G36*
G01*
X212684263Y-82352444D02*
X213020139Y-82688320D01*
G75*
G02*
X213020139Y-83024196I-167938J-167938D01*
G01*
X212613553Y-83430782D01*
G75*
G02*
X212277677Y-83430782I-167938J167938D01*
G01*
X211941801Y-83094906D01*
G75*
G02*
X211941801Y-82759030I167938J167938D01*
G01*
X212348387Y-82352444D01*
G75*
G02*
X212684263Y-82352444I167938J-167938D01*
G01*
G37*
G36*
G01*
X201338708Y-95735588D02*
X201338708Y-96210588D01*
G75*
G02*
X201101208Y-96448088I-237500J0D01*
G01*
X200526208Y-96448088D01*
G75*
G02*
X200288708Y-96210588I0J237500D01*
G01*
X200288708Y-95735588D01*
G75*
G02*
X200526208Y-95498088I237500J0D01*
G01*
X201101208Y-95498088D01*
G75*
G02*
X201338708Y-95735588I0J-237500D01*
G01*
G37*
G36*
G01*
X203088708Y-95735588D02*
X203088708Y-96210588D01*
G75*
G02*
X202851208Y-96448088I-237500J0D01*
G01*
X202276208Y-96448088D01*
G75*
G02*
X202038708Y-96210588I0J237500D01*
G01*
X202038708Y-95735588D01*
G75*
G02*
X202276208Y-95498088I237500J0D01*
G01*
X202851208Y-95498088D01*
G75*
G02*
X203088708Y-95735588I0J-237500D01*
G01*
G37*
G36*
G01*
X187196572Y-95735588D02*
X187196572Y-96210588D01*
G75*
G02*
X186959072Y-96448088I-237500J0D01*
G01*
X186384072Y-96448088D01*
G75*
G02*
X186146572Y-96210588I0J237500D01*
G01*
X186146572Y-95735588D01*
G75*
G02*
X186384072Y-95498088I237500J0D01*
G01*
X186959072Y-95498088D01*
G75*
G02*
X187196572Y-95735588I0J-237500D01*
G01*
G37*
G36*
G01*
X188946572Y-95735588D02*
X188946572Y-96210588D01*
G75*
G02*
X188709072Y-96448088I-237500J0D01*
G01*
X188134072Y-96448088D01*
G75*
G02*
X187896572Y-96210588I0J237500D01*
G01*
X187896572Y-95735588D01*
G75*
G02*
X188134072Y-95498088I237500J0D01*
G01*
X188709072Y-95498088D01*
G75*
G02*
X188946572Y-95735588I0J-237500D01*
G01*
G37*
G36*
G01*
X173054437Y-95735588D02*
X173054437Y-96210588D01*
G75*
G02*
X172816937Y-96448088I-237500J0D01*
G01*
X172241937Y-96448088D01*
G75*
G02*
X172004437Y-96210588I0J237500D01*
G01*
X172004437Y-95735588D01*
G75*
G02*
X172241937Y-95498088I237500J0D01*
G01*
X172816937Y-95498088D01*
G75*
G02*
X173054437Y-95735588I0J-237500D01*
G01*
G37*
G36*
G01*
X174804437Y-95735588D02*
X174804437Y-96210588D01*
G75*
G02*
X174566937Y-96448088I-237500J0D01*
G01*
X173991937Y-96448088D01*
G75*
G02*
X173754437Y-96210588I0J237500D01*
G01*
X173754437Y-95735588D01*
G75*
G02*
X173991937Y-95498088I237500J0D01*
G01*
X174566937Y-95498088D01*
G75*
G02*
X174804437Y-95735588I0J-237500D01*
G01*
G37*
G36*
G01*
X157052637Y-93560086D02*
X157388513Y-93224210D01*
G75*
G02*
X157724389Y-93224210I167938J-167938D01*
G01*
X158130975Y-93630796D01*
G75*
G02*
X158130975Y-93966672I-167938J-167938D01*
G01*
X157795099Y-94302548D01*
G75*
G02*
X157459223Y-94302548I-167938J167938D01*
G01*
X157052637Y-93895962D01*
G75*
G02*
X157052637Y-93560086I167938J167938D01*
G01*
G37*
G36*
G01*
X155815201Y-92322650D02*
X156151077Y-91986774D01*
G75*
G02*
X156486953Y-91986774I167938J-167938D01*
G01*
X156893539Y-92393360D01*
G75*
G02*
X156893539Y-92729236I-167938J-167938D01*
G01*
X156557663Y-93065112D01*
G75*
G02*
X156221787Y-93065112I-167938J167938D01*
G01*
X155815201Y-92658526D01*
G75*
G02*
X155815201Y-92322650I167938J167938D01*
G01*
G37*
M02*
