G04 #@! TF.GenerationSoftware,KiCad,Pcbnew,5.1.7-a382d34a88~90~ubuntu20.04.1*
G04 #@! TF.CreationDate,2022-01-21T18:01:13-05:00*
G04 #@! TF.ProjectId,cr2022012001-12-leds-board,63723230-3232-4303-9132-3030312d3132,rev?*
G04 #@! TF.SameCoordinates,Original*
G04 #@! TF.FileFunction,Legend,Top*
G04 #@! TF.FilePolarity,Positive*
%FSLAX46Y46*%
G04 Gerber Fmt 4.6, Leading zero omitted, Abs format (unit mm)*
G04 Created by KiCad (PCBNEW 5.1.7-a382d34a88~90~ubuntu20.04.1) date 2022-01-21 18:01:13*
%MOMM*%
%LPD*%
G01*
G04 APERTURE LIST*
%ADD10C,0.010000*%
%ADD11C,0.120000*%
%ADD12C,0.150000*%
G04 APERTURE END LIST*
D10*
G36*
X198168404Y-75435577D02*
G01*
X198313800Y-75500426D01*
X198650506Y-75761383D01*
X198861751Y-76123601D01*
X198949448Y-76576760D01*
X198915505Y-77110540D01*
X198761833Y-77714620D01*
X198490343Y-78378679D01*
X198102945Y-79092397D01*
X197601549Y-79845452D01*
X197478740Y-80011906D01*
X197163606Y-80408200D01*
X196795124Y-80832698D01*
X196388384Y-81271768D01*
X195958480Y-81711776D01*
X195520503Y-82139090D01*
X195089545Y-82540077D01*
X194680697Y-82901105D01*
X194309052Y-83208541D01*
X193989701Y-83448751D01*
X193737736Y-83608105D01*
X193568249Y-83672968D01*
X193496332Y-83629708D01*
X193494896Y-83610579D01*
X193504946Y-83505874D01*
X193531747Y-83269109D01*
X193571125Y-82936263D01*
X193615205Y-82573412D01*
X193739851Y-81374091D01*
X193800267Y-80324855D01*
X193796705Y-79419215D01*
X193758391Y-78887065D01*
X193634711Y-78045511D01*
X193454551Y-77357877D01*
X193213870Y-76817070D01*
X192908625Y-76416000D01*
X192534774Y-76147575D01*
X192118386Y-76010091D01*
X191882739Y-75930921D01*
X191811886Y-75815504D01*
X191906220Y-75668181D01*
X192076053Y-75545151D01*
X192465619Y-75400546D01*
X192891287Y-75396548D01*
X193314987Y-75521537D01*
X193698650Y-75763893D01*
X194004207Y-76111998D01*
X194020908Y-76138746D01*
X194238228Y-76565926D01*
X194405205Y-77062684D01*
X194526533Y-77652563D01*
X194606908Y-78359104D01*
X194651022Y-79205852D01*
X194653995Y-79313746D01*
X194662059Y-79849990D01*
X194660300Y-80382680D01*
X194649543Y-80865101D01*
X194630612Y-81250538D01*
X194617128Y-81403250D01*
X194583672Y-81728681D01*
X194576619Y-81915856D01*
X194599044Y-81994237D01*
X194654023Y-81993288D01*
X194677513Y-81981837D01*
X194829467Y-81870923D01*
X195072314Y-81659519D01*
X195382018Y-81371495D01*
X195734543Y-81030719D01*
X196105853Y-80661060D01*
X196471911Y-80286387D01*
X196808680Y-79930570D01*
X197092125Y-79617476D01*
X197267416Y-79409966D01*
X197559134Y-79020158D01*
X197834869Y-78604861D01*
X198075778Y-78197485D01*
X198263019Y-77831439D01*
X198377748Y-77540134D01*
X198404886Y-77393165D01*
X198327841Y-77079158D01*
X198125983Y-76793707D01*
X197843226Y-76579674D01*
X197523484Y-76479924D01*
X197466679Y-76477412D01*
X197346082Y-76457119D01*
X197309852Y-76363906D01*
X197329792Y-76183297D01*
X197442837Y-75761762D01*
X197620002Y-75496829D01*
X197861715Y-75388199D01*
X198168404Y-75435577D01*
G37*
X198168404Y-75435577D02*
X198313800Y-75500426D01*
X198650506Y-75761383D01*
X198861751Y-76123601D01*
X198949448Y-76576760D01*
X198915505Y-77110540D01*
X198761833Y-77714620D01*
X198490343Y-78378679D01*
X198102945Y-79092397D01*
X197601549Y-79845452D01*
X197478740Y-80011906D01*
X197163606Y-80408200D01*
X196795124Y-80832698D01*
X196388384Y-81271768D01*
X195958480Y-81711776D01*
X195520503Y-82139090D01*
X195089545Y-82540077D01*
X194680697Y-82901105D01*
X194309052Y-83208541D01*
X193989701Y-83448751D01*
X193737736Y-83608105D01*
X193568249Y-83672968D01*
X193496332Y-83629708D01*
X193494896Y-83610579D01*
X193504946Y-83505874D01*
X193531747Y-83269109D01*
X193571125Y-82936263D01*
X193615205Y-82573412D01*
X193739851Y-81374091D01*
X193800267Y-80324855D01*
X193796705Y-79419215D01*
X193758391Y-78887065D01*
X193634711Y-78045511D01*
X193454551Y-77357877D01*
X193213870Y-76817070D01*
X192908625Y-76416000D01*
X192534774Y-76147575D01*
X192118386Y-76010091D01*
X191882739Y-75930921D01*
X191811886Y-75815504D01*
X191906220Y-75668181D01*
X192076053Y-75545151D01*
X192465619Y-75400546D01*
X192891287Y-75396548D01*
X193314987Y-75521537D01*
X193698650Y-75763893D01*
X194004207Y-76111998D01*
X194020908Y-76138746D01*
X194238228Y-76565926D01*
X194405205Y-77062684D01*
X194526533Y-77652563D01*
X194606908Y-78359104D01*
X194651022Y-79205852D01*
X194653995Y-79313746D01*
X194662059Y-79849990D01*
X194660300Y-80382680D01*
X194649543Y-80865101D01*
X194630612Y-81250538D01*
X194617128Y-81403250D01*
X194583672Y-81728681D01*
X194576619Y-81915856D01*
X194599044Y-81994237D01*
X194654023Y-81993288D01*
X194677513Y-81981837D01*
X194829467Y-81870923D01*
X195072314Y-81659519D01*
X195382018Y-81371495D01*
X195734543Y-81030719D01*
X196105853Y-80661060D01*
X196471911Y-80286387D01*
X196808680Y-79930570D01*
X197092125Y-79617476D01*
X197267416Y-79409966D01*
X197559134Y-79020158D01*
X197834869Y-78604861D01*
X198075778Y-78197485D01*
X198263019Y-77831439D01*
X198377748Y-77540134D01*
X198404886Y-77393165D01*
X198327841Y-77079158D01*
X198125983Y-76793707D01*
X197843226Y-76579674D01*
X197523484Y-76479924D01*
X197466679Y-76477412D01*
X197346082Y-76457119D01*
X197309852Y-76363906D01*
X197329792Y-76183297D01*
X197442837Y-75761762D01*
X197620002Y-75496829D01*
X197861715Y-75388199D01*
X198168404Y-75435577D01*
G36*
X180872508Y-75146017D02*
G01*
X181075486Y-75240301D01*
X181268353Y-75410612D01*
X181441352Y-75604584D01*
X181526913Y-75784303D01*
X181554666Y-76026261D01*
X181556219Y-76153773D01*
X181515510Y-76557393D01*
X181376735Y-76848552D01*
X181114922Y-77067533D01*
X180931167Y-77162048D01*
X180644771Y-77282227D01*
X180477425Y-77305689D01*
X180397278Y-77212547D01*
X180372481Y-76982915D01*
X180370886Y-76812230D01*
X180325334Y-76386125D01*
X180183940Y-76095445D01*
X179939597Y-75931396D01*
X179621505Y-75884745D01*
X179381360Y-75910375D01*
X179194670Y-76012566D01*
X179024832Y-76184204D01*
X178742638Y-76580869D01*
X178456602Y-77124946D01*
X178175681Y-77794999D01*
X177908832Y-78569593D01*
X177665012Y-79427292D01*
X177657619Y-79456150D01*
X177500269Y-80042297D01*
X177352791Y-80515765D01*
X177196092Y-80930713D01*
X177011079Y-81341299D01*
X176946690Y-81472746D01*
X176673080Y-82023079D01*
X177188483Y-82034617D01*
X177480566Y-82061160D01*
X177879824Y-82124362D01*
X178330620Y-82214349D01*
X178719886Y-82306347D01*
X179158175Y-82411667D01*
X179580678Y-82501064D01*
X179936648Y-82564497D01*
X180159137Y-82591143D01*
X180414938Y-82598072D01*
X180561224Y-82562543D01*
X180657099Y-82457671D01*
X180722805Y-82334733D01*
X180978624Y-81943312D01*
X181290443Y-81655408D01*
X181626544Y-81496262D01*
X181806015Y-81472746D01*
X181939569Y-81507220D01*
X181965093Y-81621711D01*
X181880751Y-81832824D01*
X181739785Y-82071667D01*
X181362938Y-82545514D01*
X180881466Y-82926709D01*
X180455553Y-83157908D01*
X180069930Y-83296274D01*
X179640224Y-83361062D01*
X179139886Y-83351697D01*
X178542365Y-83267603D01*
X177821112Y-83108204D01*
X177788553Y-83100063D01*
X177235722Y-82962189D01*
X176821421Y-82863961D01*
X176520006Y-82803554D01*
X176305829Y-82779142D01*
X176153245Y-82788900D01*
X176036607Y-82831005D01*
X175930270Y-82903629D01*
X175858800Y-82962733D01*
X175597053Y-83153882D01*
X175331740Y-83299937D01*
X175098177Y-83387663D01*
X174931678Y-83403826D01*
X174867557Y-83335190D01*
X174867553Y-83334216D01*
X174917775Y-83230855D01*
X175050258Y-83037751D01*
X175237724Y-82794295D01*
X175263313Y-82762716D01*
X175488722Y-82464780D01*
X175686271Y-82149930D01*
X175867318Y-81791584D01*
X176043222Y-81363163D01*
X176225341Y-80838085D01*
X176425034Y-80189770D01*
X176556021Y-79737553D01*
X176801327Y-78919584D01*
X177033775Y-78242288D01*
X177265089Y-77678798D01*
X177506989Y-77202247D01*
X177771197Y-76785767D01*
X177945022Y-76553896D01*
X178419948Y-76058078D01*
X178975959Y-75647782D01*
X179576072Y-75342895D01*
X180183305Y-75163304D01*
X180606386Y-75122746D01*
X180872508Y-75146017D01*
G37*
X180872508Y-75146017D02*
X181075486Y-75240301D01*
X181268353Y-75410612D01*
X181441352Y-75604584D01*
X181526913Y-75784303D01*
X181554666Y-76026261D01*
X181556219Y-76153773D01*
X181515510Y-76557393D01*
X181376735Y-76848552D01*
X181114922Y-77067533D01*
X180931167Y-77162048D01*
X180644771Y-77282227D01*
X180477425Y-77305689D01*
X180397278Y-77212547D01*
X180372481Y-76982915D01*
X180370886Y-76812230D01*
X180325334Y-76386125D01*
X180183940Y-76095445D01*
X179939597Y-75931396D01*
X179621505Y-75884745D01*
X179381360Y-75910375D01*
X179194670Y-76012566D01*
X179024832Y-76184204D01*
X178742638Y-76580869D01*
X178456602Y-77124946D01*
X178175681Y-77794999D01*
X177908832Y-78569593D01*
X177665012Y-79427292D01*
X177657619Y-79456150D01*
X177500269Y-80042297D01*
X177352791Y-80515765D01*
X177196092Y-80930713D01*
X177011079Y-81341299D01*
X176946690Y-81472746D01*
X176673080Y-82023079D01*
X177188483Y-82034617D01*
X177480566Y-82061160D01*
X177879824Y-82124362D01*
X178330620Y-82214349D01*
X178719886Y-82306347D01*
X179158175Y-82411667D01*
X179580678Y-82501064D01*
X179936648Y-82564497D01*
X180159137Y-82591143D01*
X180414938Y-82598072D01*
X180561224Y-82562543D01*
X180657099Y-82457671D01*
X180722805Y-82334733D01*
X180978624Y-81943312D01*
X181290443Y-81655408D01*
X181626544Y-81496262D01*
X181806015Y-81472746D01*
X181939569Y-81507220D01*
X181965093Y-81621711D01*
X181880751Y-81832824D01*
X181739785Y-82071667D01*
X181362938Y-82545514D01*
X180881466Y-82926709D01*
X180455553Y-83157908D01*
X180069930Y-83296274D01*
X179640224Y-83361062D01*
X179139886Y-83351697D01*
X178542365Y-83267603D01*
X177821112Y-83108204D01*
X177788553Y-83100063D01*
X177235722Y-82962189D01*
X176821421Y-82863961D01*
X176520006Y-82803554D01*
X176305829Y-82779142D01*
X176153245Y-82788900D01*
X176036607Y-82831005D01*
X175930270Y-82903629D01*
X175858800Y-82962733D01*
X175597053Y-83153882D01*
X175331740Y-83299937D01*
X175098177Y-83387663D01*
X174931678Y-83403826D01*
X174867557Y-83335190D01*
X174867553Y-83334216D01*
X174917775Y-83230855D01*
X175050258Y-83037751D01*
X175237724Y-82794295D01*
X175263313Y-82762716D01*
X175488722Y-82464780D01*
X175686271Y-82149930D01*
X175867318Y-81791584D01*
X176043222Y-81363163D01*
X176225341Y-80838085D01*
X176425034Y-80189770D01*
X176556021Y-79737553D01*
X176801327Y-78919584D01*
X177033775Y-78242288D01*
X177265089Y-77678798D01*
X177506989Y-77202247D01*
X177771197Y-76785767D01*
X177945022Y-76553896D01*
X178419948Y-76058078D01*
X178975959Y-75647782D01*
X179576072Y-75342895D01*
X180183305Y-75163304D01*
X180606386Y-75122746D01*
X180872508Y-75146017D01*
G36*
X186884816Y-75194373D02*
G01*
X186890219Y-75237257D01*
X186825818Y-75332214D01*
X186651785Y-75498873D01*
X186396875Y-75711354D01*
X186172096Y-75883603D01*
X185484739Y-76465224D01*
X184945659Y-77091227D01*
X184534533Y-77790236D01*
X184231040Y-78590873D01*
X184217650Y-78636412D01*
X184103795Y-79220489D01*
X184071798Y-79859087D01*
X184120321Y-80486391D01*
X184248023Y-81036588D01*
X184267651Y-81091746D01*
X184504020Y-81555902D01*
X184836439Y-81977640D01*
X185226621Y-82318167D01*
X185636279Y-82538691D01*
X185723417Y-82566748D01*
X186194637Y-82643932D01*
X186727549Y-82645354D01*
X187252694Y-82576262D01*
X187700611Y-82441905D01*
X187765036Y-82412485D01*
X188181689Y-82154239D01*
X188620370Y-81790664D01*
X189030594Y-81369454D01*
X189361877Y-80938301D01*
X189415029Y-80853725D01*
X189754919Y-80179466D01*
X189996099Y-79467495D01*
X190136141Y-78747268D01*
X190172613Y-78048242D01*
X190103084Y-77399875D01*
X189925123Y-76831622D01*
X189770272Y-76548855D01*
X189446846Y-76169997D01*
X189061590Y-75935873D01*
X188651559Y-75832803D01*
X188278336Y-75827126D01*
X187944456Y-75928027D01*
X187634030Y-76148675D01*
X187331169Y-76502236D01*
X187019985Y-77001876D01*
X186847606Y-77327738D01*
X186577961Y-77756829D01*
X186283125Y-78036803D01*
X185973112Y-78159689D01*
X185803948Y-78158083D01*
X185609090Y-78128412D01*
X185923488Y-77501299D01*
X186289942Y-76906958D01*
X186765185Y-76340707D01*
X187305336Y-75847880D01*
X187866515Y-75473812D01*
X187906219Y-75452848D01*
X188198166Y-75310141D01*
X188437372Y-75224699D01*
X188688916Y-75182002D01*
X189017876Y-75167529D01*
X189190092Y-75166382D01*
X189556256Y-75170355D01*
X189805660Y-75191990D01*
X189990791Y-75243506D01*
X190164133Y-75337120D01*
X190289697Y-75422359D01*
X190675749Y-75780972D01*
X190951663Y-76242763D01*
X191123237Y-76820820D01*
X191193804Y-77464013D01*
X191153137Y-78407654D01*
X190951696Y-79314335D01*
X190596074Y-80172839D01*
X190092863Y-80971950D01*
X189448654Y-81700453D01*
X188670039Y-82347131D01*
X188111501Y-82708630D01*
X187492038Y-83009437D01*
X186823529Y-83226077D01*
X186149082Y-83350589D01*
X185511807Y-83375012D01*
X184955217Y-83291499D01*
X184379177Y-83050664D01*
X183902000Y-82688459D01*
X183525687Y-82222406D01*
X183252236Y-81670026D01*
X183083646Y-81048841D01*
X183021916Y-80376374D01*
X183069046Y-79670145D01*
X183227034Y-78947676D01*
X183497880Y-78226490D01*
X183883582Y-77524107D01*
X184240929Y-77030699D01*
X184554364Y-76675355D01*
X184908748Y-76326789D01*
X185284424Y-75998307D01*
X185661734Y-75703217D01*
X186021022Y-75454824D01*
X186342632Y-75266437D01*
X186606905Y-75151362D01*
X186794185Y-75122904D01*
X186884816Y-75194373D01*
G37*
X186884816Y-75194373D02*
X186890219Y-75237257D01*
X186825818Y-75332214D01*
X186651785Y-75498873D01*
X186396875Y-75711354D01*
X186172096Y-75883603D01*
X185484739Y-76465224D01*
X184945659Y-77091227D01*
X184534533Y-77790236D01*
X184231040Y-78590873D01*
X184217650Y-78636412D01*
X184103795Y-79220489D01*
X184071798Y-79859087D01*
X184120321Y-80486391D01*
X184248023Y-81036588D01*
X184267651Y-81091746D01*
X184504020Y-81555902D01*
X184836439Y-81977640D01*
X185226621Y-82318167D01*
X185636279Y-82538691D01*
X185723417Y-82566748D01*
X186194637Y-82643932D01*
X186727549Y-82645354D01*
X187252694Y-82576262D01*
X187700611Y-82441905D01*
X187765036Y-82412485D01*
X188181689Y-82154239D01*
X188620370Y-81790664D01*
X189030594Y-81369454D01*
X189361877Y-80938301D01*
X189415029Y-80853725D01*
X189754919Y-80179466D01*
X189996099Y-79467495D01*
X190136141Y-78747268D01*
X190172613Y-78048242D01*
X190103084Y-77399875D01*
X189925123Y-76831622D01*
X189770272Y-76548855D01*
X189446846Y-76169997D01*
X189061590Y-75935873D01*
X188651559Y-75832803D01*
X188278336Y-75827126D01*
X187944456Y-75928027D01*
X187634030Y-76148675D01*
X187331169Y-76502236D01*
X187019985Y-77001876D01*
X186847606Y-77327738D01*
X186577961Y-77756829D01*
X186283125Y-78036803D01*
X185973112Y-78159689D01*
X185803948Y-78158083D01*
X185609090Y-78128412D01*
X185923488Y-77501299D01*
X186289942Y-76906958D01*
X186765185Y-76340707D01*
X187305336Y-75847880D01*
X187866515Y-75473812D01*
X187906219Y-75452848D01*
X188198166Y-75310141D01*
X188437372Y-75224699D01*
X188688916Y-75182002D01*
X189017876Y-75167529D01*
X189190092Y-75166382D01*
X189556256Y-75170355D01*
X189805660Y-75191990D01*
X189990791Y-75243506D01*
X190164133Y-75337120D01*
X190289697Y-75422359D01*
X190675749Y-75780972D01*
X190951663Y-76242763D01*
X191123237Y-76820820D01*
X191193804Y-77464013D01*
X191153137Y-78407654D01*
X190951696Y-79314335D01*
X190596074Y-80172839D01*
X190092863Y-80971950D01*
X189448654Y-81700453D01*
X188670039Y-82347131D01*
X188111501Y-82708630D01*
X187492038Y-83009437D01*
X186823529Y-83226077D01*
X186149082Y-83350589D01*
X185511807Y-83375012D01*
X184955217Y-83291499D01*
X184379177Y-83050664D01*
X183902000Y-82688459D01*
X183525687Y-82222406D01*
X183252236Y-81670026D01*
X183083646Y-81048841D01*
X183021916Y-80376374D01*
X183069046Y-79670145D01*
X183227034Y-78947676D01*
X183497880Y-78226490D01*
X183883582Y-77524107D01*
X184240929Y-77030699D01*
X184554364Y-76675355D01*
X184908748Y-76326789D01*
X185284424Y-75998307D01*
X185661734Y-75703217D01*
X186021022Y-75454824D01*
X186342632Y-75266437D01*
X186606905Y-75151362D01*
X186794185Y-75122904D01*
X186884816Y-75194373D01*
G36*
X204291886Y-75206104D02*
G01*
X204599436Y-75365526D01*
X204710056Y-75483541D01*
X204822192Y-75777160D01*
X204802160Y-76103164D01*
X204672120Y-76424252D01*
X204454232Y-76703118D01*
X204170656Y-76902460D01*
X203843552Y-76984973D01*
X203817882Y-76985412D01*
X203687633Y-76957582D01*
X203680125Y-76842213D01*
X203693513Y-76794912D01*
X203777240Y-76495151D01*
X203797729Y-76303168D01*
X203753268Y-76168976D01*
X203668608Y-76068468D01*
X203405629Y-75911596D01*
X203041884Y-75832658D01*
X202626163Y-75830166D01*
X202207253Y-75902635D01*
X201833942Y-76048579D01*
X201706886Y-76128228D01*
X201361206Y-76473386D01*
X201161867Y-76895299D01*
X201114219Y-77260400D01*
X201131995Y-77542563D01*
X201207746Y-77741220D01*
X201375108Y-77940441D01*
X201393844Y-77959304D01*
X201692458Y-78176596D01*
X202089334Y-78358508D01*
X202513590Y-78477658D01*
X202817923Y-78509412D01*
X203035949Y-78545039D01*
X203105601Y-78643912D01*
X203018786Y-78794021D01*
X203013395Y-78799474D01*
X202813284Y-78960893D01*
X202557611Y-79083114D01*
X202202408Y-79184053D01*
X201931358Y-79240305D01*
X201296673Y-79424216D01*
X200767739Y-79708671D01*
X200399429Y-80043057D01*
X200089269Y-80488714D01*
X199887863Y-80944356D01*
X199800559Y-81381322D01*
X199832701Y-81770952D01*
X199989635Y-82084585D01*
X200013553Y-82111922D01*
X200412502Y-82421418D01*
X200918759Y-82603547D01*
X201445447Y-82656219D01*
X201948846Y-82603332D01*
X202381799Y-82428923D01*
X202779523Y-82115028D01*
X203011969Y-81857065D01*
X203323793Y-81533588D01*
X203634389Y-81313758D01*
X203910310Y-81220423D01*
X203946348Y-81218746D01*
X204064665Y-81267451D01*
X204045312Y-81412789D01*
X203888850Y-81653594D01*
X203595846Y-81988699D01*
X203551463Y-82035270D01*
X203034693Y-82486593D01*
X202428340Y-82875512D01*
X201787881Y-83171230D01*
X201208496Y-83335939D01*
X200842645Y-83393622D01*
X200560667Y-83406042D01*
X200283103Y-83372618D01*
X200074301Y-83327659D01*
X199585877Y-83158486D01*
X199186924Y-82887331D01*
X199039886Y-82744520D01*
X198901570Y-82582471D01*
X198825635Y-82426188D01*
X198794331Y-82216549D01*
X198789785Y-81911461D01*
X198817572Y-81490313D01*
X198905114Y-81155660D01*
X198989635Y-80970958D01*
X199249728Y-80572843D01*
X199615178Y-80145511D01*
X200040410Y-79736510D01*
X200479847Y-79393389D01*
X200540604Y-79352862D01*
X201025322Y-79037115D01*
X200691132Y-78815958D01*
X200341817Y-78500239D01*
X200137927Y-78126153D01*
X200073731Y-77711664D01*
X200143499Y-77274736D01*
X200341503Y-76833332D01*
X200662011Y-76405417D01*
X201099294Y-76008954D01*
X201647623Y-75661907D01*
X201706886Y-75631349D01*
X202274389Y-75387706D01*
X202843380Y-75222044D01*
X203387119Y-75135679D01*
X203878867Y-75129927D01*
X204291886Y-75206104D01*
G37*
X204291886Y-75206104D02*
X204599436Y-75365526D01*
X204710056Y-75483541D01*
X204822192Y-75777160D01*
X204802160Y-76103164D01*
X204672120Y-76424252D01*
X204454232Y-76703118D01*
X204170656Y-76902460D01*
X203843552Y-76984973D01*
X203817882Y-76985412D01*
X203687633Y-76957582D01*
X203680125Y-76842213D01*
X203693513Y-76794912D01*
X203777240Y-76495151D01*
X203797729Y-76303168D01*
X203753268Y-76168976D01*
X203668608Y-76068468D01*
X203405629Y-75911596D01*
X203041884Y-75832658D01*
X202626163Y-75830166D01*
X202207253Y-75902635D01*
X201833942Y-76048579D01*
X201706886Y-76128228D01*
X201361206Y-76473386D01*
X201161867Y-76895299D01*
X201114219Y-77260400D01*
X201131995Y-77542563D01*
X201207746Y-77741220D01*
X201375108Y-77940441D01*
X201393844Y-77959304D01*
X201692458Y-78176596D01*
X202089334Y-78358508D01*
X202513590Y-78477658D01*
X202817923Y-78509412D01*
X203035949Y-78545039D01*
X203105601Y-78643912D01*
X203018786Y-78794021D01*
X203013395Y-78799474D01*
X202813284Y-78960893D01*
X202557611Y-79083114D01*
X202202408Y-79184053D01*
X201931358Y-79240305D01*
X201296673Y-79424216D01*
X200767739Y-79708671D01*
X200399429Y-80043057D01*
X200089269Y-80488714D01*
X199887863Y-80944356D01*
X199800559Y-81381322D01*
X199832701Y-81770952D01*
X199989635Y-82084585D01*
X200013553Y-82111922D01*
X200412502Y-82421418D01*
X200918759Y-82603547D01*
X201445447Y-82656219D01*
X201948846Y-82603332D01*
X202381799Y-82428923D01*
X202779523Y-82115028D01*
X203011969Y-81857065D01*
X203323793Y-81533588D01*
X203634389Y-81313758D01*
X203910310Y-81220423D01*
X203946348Y-81218746D01*
X204064665Y-81267451D01*
X204045312Y-81412789D01*
X203888850Y-81653594D01*
X203595846Y-81988699D01*
X203551463Y-82035270D01*
X203034693Y-82486593D01*
X202428340Y-82875512D01*
X201787881Y-83171230D01*
X201208496Y-83335939D01*
X200842645Y-83393622D01*
X200560667Y-83406042D01*
X200283103Y-83372618D01*
X200074301Y-83327659D01*
X199585877Y-83158486D01*
X199186924Y-82887331D01*
X199039886Y-82744520D01*
X198901570Y-82582471D01*
X198825635Y-82426188D01*
X198794331Y-82216549D01*
X198789785Y-81911461D01*
X198817572Y-81490313D01*
X198905114Y-81155660D01*
X198989635Y-80970958D01*
X199249728Y-80572843D01*
X199615178Y-80145511D01*
X200040410Y-79736510D01*
X200479847Y-79393389D01*
X200540604Y-79352862D01*
X201025322Y-79037115D01*
X200691132Y-78815958D01*
X200341817Y-78500239D01*
X200137927Y-78126153D01*
X200073731Y-77711664D01*
X200143499Y-77274736D01*
X200341503Y-76833332D01*
X200662011Y-76405417D01*
X201099294Y-76008954D01*
X201647623Y-75661907D01*
X201706886Y-75631349D01*
X202274389Y-75387706D01*
X202843380Y-75222044D01*
X203387119Y-75135679D01*
X203878867Y-75129927D01*
X204291886Y-75206104D01*
G36*
X173546364Y-76685622D02*
G01*
X173334393Y-77062938D01*
X173001869Y-77356758D01*
X172565784Y-77559958D01*
X172043123Y-77665412D01*
X171450876Y-77665997D01*
X170806031Y-77554585D01*
X170602882Y-77497654D01*
X169799802Y-77189366D01*
X168935833Y-76740222D01*
X168025865Y-76160797D01*
X167084785Y-75461669D01*
X166127484Y-74653411D01*
X165168849Y-73746601D01*
X164815211Y-73386574D01*
X164454174Y-73001322D01*
X164079943Y-72583782D01*
X163709975Y-72155422D01*
X163361727Y-71737710D01*
X163052654Y-71352113D01*
X162800215Y-71020099D01*
X162621863Y-70763137D01*
X162535057Y-70602694D01*
X162529463Y-70575568D01*
X162559843Y-70511941D01*
X162672848Y-70484466D01*
X162901284Y-70489094D01*
X163100963Y-70505015D01*
X163405166Y-70534070D01*
X163824929Y-70576444D01*
X164307523Y-70626713D01*
X164800215Y-70679454D01*
X164857797Y-70685722D01*
X165538636Y-70745233D01*
X166293851Y-70786258D01*
X167079700Y-70808388D01*
X167852443Y-70811215D01*
X168568337Y-70794331D01*
X169183640Y-70757326D01*
X169459791Y-70728695D01*
X170301675Y-70578200D01*
X171038517Y-70354747D01*
X171659174Y-70065332D01*
X172152502Y-69716951D01*
X172507359Y-69316602D01*
X172712599Y-68871282D01*
X172752840Y-68661099D01*
X172793833Y-68419804D01*
X172846958Y-68257927D01*
X172870785Y-68227087D01*
X173041014Y-68207530D01*
X173222421Y-68321451D01*
X173392522Y-68536375D01*
X173528835Y-68819827D01*
X173608877Y-69139331D01*
X173620797Y-69310441D01*
X173557752Y-69867535D01*
X173365197Y-70354389D01*
X173037998Y-70774545D01*
X172571022Y-71131544D01*
X171959137Y-71428926D01*
X171197210Y-71670232D01*
X170280108Y-71859002D01*
X169829432Y-71925886D01*
X169525289Y-71951594D01*
X169086669Y-71968768D01*
X168548190Y-71977858D01*
X167944469Y-71979312D01*
X167310125Y-71973581D01*
X166679774Y-71961113D01*
X166088036Y-71942358D01*
X165569527Y-71917765D01*
X165158865Y-71887784D01*
X164945383Y-71862490D01*
X164609635Y-71810042D01*
X165069195Y-72350602D01*
X165698603Y-73056986D01*
X166378787Y-73759873D01*
X167086135Y-74438539D01*
X167797036Y-75072262D01*
X168487878Y-75640318D01*
X169135049Y-76121984D01*
X169714937Y-76496537D01*
X169926403Y-76613623D01*
X170474080Y-76837076D01*
X170963555Y-76911838D01*
X171385051Y-76841334D01*
X171728792Y-76628988D01*
X171985003Y-76278223D01*
X172134107Y-75840402D01*
X172210542Y-75628415D01*
X172344468Y-75530117D01*
X172568933Y-75533751D01*
X172818527Y-75596880D01*
X173223083Y-75744665D01*
X173477588Y-75905658D01*
X173601312Y-76095111D01*
X173620797Y-76231936D01*
X173546364Y-76685622D01*
G37*
X173546364Y-76685622D02*
X173334393Y-77062938D01*
X173001869Y-77356758D01*
X172565784Y-77559958D01*
X172043123Y-77665412D01*
X171450876Y-77665997D01*
X170806031Y-77554585D01*
X170602882Y-77497654D01*
X169799802Y-77189366D01*
X168935833Y-76740222D01*
X168025865Y-76160797D01*
X167084785Y-75461669D01*
X166127484Y-74653411D01*
X165168849Y-73746601D01*
X164815211Y-73386574D01*
X164454174Y-73001322D01*
X164079943Y-72583782D01*
X163709975Y-72155422D01*
X163361727Y-71737710D01*
X163052654Y-71352113D01*
X162800215Y-71020099D01*
X162621863Y-70763137D01*
X162535057Y-70602694D01*
X162529463Y-70575568D01*
X162559843Y-70511941D01*
X162672848Y-70484466D01*
X162901284Y-70489094D01*
X163100963Y-70505015D01*
X163405166Y-70534070D01*
X163824929Y-70576444D01*
X164307523Y-70626713D01*
X164800215Y-70679454D01*
X164857797Y-70685722D01*
X165538636Y-70745233D01*
X166293851Y-70786258D01*
X167079700Y-70808388D01*
X167852443Y-70811215D01*
X168568337Y-70794331D01*
X169183640Y-70757326D01*
X169459791Y-70728695D01*
X170301675Y-70578200D01*
X171038517Y-70354747D01*
X171659174Y-70065332D01*
X172152502Y-69716951D01*
X172507359Y-69316602D01*
X172712599Y-68871282D01*
X172752840Y-68661099D01*
X172793833Y-68419804D01*
X172846958Y-68257927D01*
X172870785Y-68227087D01*
X173041014Y-68207530D01*
X173222421Y-68321451D01*
X173392522Y-68536375D01*
X173528835Y-68819827D01*
X173608877Y-69139331D01*
X173620797Y-69310441D01*
X173557752Y-69867535D01*
X173365197Y-70354389D01*
X173037998Y-70774545D01*
X172571022Y-71131544D01*
X171959137Y-71428926D01*
X171197210Y-71670232D01*
X170280108Y-71859002D01*
X169829432Y-71925886D01*
X169525289Y-71951594D01*
X169086669Y-71968768D01*
X168548190Y-71977858D01*
X167944469Y-71979312D01*
X167310125Y-71973581D01*
X166679774Y-71961113D01*
X166088036Y-71942358D01*
X165569527Y-71917765D01*
X165158865Y-71887784D01*
X164945383Y-71862490D01*
X164609635Y-71810042D01*
X165069195Y-72350602D01*
X165698603Y-73056986D01*
X166378787Y-73759873D01*
X167086135Y-74438539D01*
X167797036Y-75072262D01*
X168487878Y-75640318D01*
X169135049Y-76121984D01*
X169714937Y-76496537D01*
X169926403Y-76613623D01*
X170474080Y-76837076D01*
X170963555Y-76911838D01*
X171385051Y-76841334D01*
X171728792Y-76628988D01*
X171985003Y-76278223D01*
X172134107Y-75840402D01*
X172210542Y-75628415D01*
X172344468Y-75530117D01*
X172568933Y-75533751D01*
X172818527Y-75596880D01*
X173223083Y-75744665D01*
X173477588Y-75905658D01*
X173601312Y-76095111D01*
X173620797Y-76231936D01*
X173546364Y-76685622D01*
G36*
X173894770Y-53684969D02*
G01*
X173702401Y-54058723D01*
X173382094Y-54321576D01*
X172933903Y-54473479D01*
X172462190Y-54515283D01*
X172155913Y-54507759D01*
X171954342Y-54466967D01*
X171793345Y-54372573D01*
X171671269Y-54264496D01*
X171409789Y-53959575D01*
X171207095Y-53616313D01*
X171094122Y-53292198D01*
X171080797Y-53167202D01*
X171089945Y-53051963D01*
X171142811Y-52987595D01*
X171277532Y-52959309D01*
X171532241Y-52952318D01*
X171635335Y-52952163D01*
X172155948Y-52906911D01*
X172539271Y-52767476D01*
X172792280Y-52528341D01*
X172921949Y-52183986D01*
X172943463Y-51917230D01*
X172929646Y-51668164D01*
X172866897Y-51486154D01*
X172723274Y-51303232D01*
X172593855Y-51173358D01*
X172268612Y-50904712D01*
X171846228Y-50639963D01*
X171315604Y-50374622D01*
X170665645Y-50104196D01*
X169885251Y-49824196D01*
X168963326Y-49530131D01*
X167888771Y-49217511D01*
X167482463Y-49105040D01*
X166884042Y-48922803D01*
X166276566Y-48705782D01*
X165733644Y-48481011D01*
X165556297Y-48397581D01*
X164730797Y-47991374D01*
X164730797Y-48599880D01*
X164713316Y-48932335D01*
X164657649Y-49335731D01*
X164558955Y-49837005D01*
X164412395Y-50463089D01*
X164354307Y-50695340D01*
X164168008Y-51471996D01*
X164041023Y-52099145D01*
X163972297Y-52585487D01*
X163960776Y-52939720D01*
X164005406Y-53170544D01*
X164045939Y-53239429D01*
X164196811Y-53352717D01*
X164419958Y-53455214D01*
X164437004Y-53461001D01*
X164738457Y-53631339D01*
X165031459Y-53915243D01*
X165279100Y-54262519D01*
X165444467Y-54622970D01*
X165492797Y-54896776D01*
X165446516Y-55031984D01*
X165301333Y-55056248D01*
X165047732Y-54968559D01*
X164764926Y-54819725D01*
X164275773Y-54461142D01*
X163814196Y-53976335D01*
X163418173Y-53408094D01*
X163272059Y-53137764D01*
X163135430Y-52840553D01*
X163049385Y-52583517D01*
X163000114Y-52304700D01*
X162973802Y-51942146D01*
X162966936Y-51769128D01*
X162960421Y-51465230D01*
X162967723Y-51195118D01*
X162994238Y-50923339D01*
X163045363Y-50614440D01*
X163126492Y-50232969D01*
X163243023Y-49743473D01*
X163326769Y-49404879D01*
X163483602Y-48765174D01*
X163597202Y-48264427D01*
X163668346Y-47878079D01*
X163697813Y-47581574D01*
X163686381Y-47350355D01*
X163634826Y-47159865D01*
X163543926Y-46985546D01*
X163414460Y-46802841D01*
X163409376Y-46796171D01*
X163228273Y-46542248D01*
X163084831Y-46311403D01*
X163028376Y-46197260D01*
X162966816Y-45957902D01*
X162958727Y-45743237D01*
X163002525Y-45607525D01*
X163046190Y-45586163D01*
X163152745Y-45639251D01*
X163340899Y-45778181D01*
X163561401Y-45965413D01*
X163919655Y-46267791D01*
X164286380Y-46531177D01*
X164685518Y-46766352D01*
X165141012Y-46984094D01*
X165676804Y-47195186D01*
X166316835Y-47410406D01*
X167085047Y-47640537D01*
X167608935Y-47787900D01*
X168149777Y-47941044D01*
X168694163Y-48101632D01*
X169196516Y-48255774D01*
X169611257Y-48389581D01*
X169816990Y-48460782D01*
X170719061Y-48852391D01*
X171536008Y-49335628D01*
X172255416Y-49896285D01*
X172864869Y-50520157D01*
X173351951Y-51193038D01*
X173704248Y-51900722D01*
X173909344Y-52629002D01*
X173959147Y-53200363D01*
X173894770Y-53684969D01*
G37*
X173894770Y-53684969D02*
X173702401Y-54058723D01*
X173382094Y-54321576D01*
X172933903Y-54473479D01*
X172462190Y-54515283D01*
X172155913Y-54507759D01*
X171954342Y-54466967D01*
X171793345Y-54372573D01*
X171671269Y-54264496D01*
X171409789Y-53959575D01*
X171207095Y-53616313D01*
X171094122Y-53292198D01*
X171080797Y-53167202D01*
X171089945Y-53051963D01*
X171142811Y-52987595D01*
X171277532Y-52959309D01*
X171532241Y-52952318D01*
X171635335Y-52952163D01*
X172155948Y-52906911D01*
X172539271Y-52767476D01*
X172792280Y-52528341D01*
X172921949Y-52183986D01*
X172943463Y-51917230D01*
X172929646Y-51668164D01*
X172866897Y-51486154D01*
X172723274Y-51303232D01*
X172593855Y-51173358D01*
X172268612Y-50904712D01*
X171846228Y-50639963D01*
X171315604Y-50374622D01*
X170665645Y-50104196D01*
X169885251Y-49824196D01*
X168963326Y-49530131D01*
X167888771Y-49217511D01*
X167482463Y-49105040D01*
X166884042Y-48922803D01*
X166276566Y-48705782D01*
X165733644Y-48481011D01*
X165556297Y-48397581D01*
X164730797Y-47991374D01*
X164730797Y-48599880D01*
X164713316Y-48932335D01*
X164657649Y-49335731D01*
X164558955Y-49837005D01*
X164412395Y-50463089D01*
X164354307Y-50695340D01*
X164168008Y-51471996D01*
X164041023Y-52099145D01*
X163972297Y-52585487D01*
X163960776Y-52939720D01*
X164005406Y-53170544D01*
X164045939Y-53239429D01*
X164196811Y-53352717D01*
X164419958Y-53455214D01*
X164437004Y-53461001D01*
X164738457Y-53631339D01*
X165031459Y-53915243D01*
X165279100Y-54262519D01*
X165444467Y-54622970D01*
X165492797Y-54896776D01*
X165446516Y-55031984D01*
X165301333Y-55056248D01*
X165047732Y-54968559D01*
X164764926Y-54819725D01*
X164275773Y-54461142D01*
X163814196Y-53976335D01*
X163418173Y-53408094D01*
X163272059Y-53137764D01*
X163135430Y-52840553D01*
X163049385Y-52583517D01*
X163000114Y-52304700D01*
X162973802Y-51942146D01*
X162966936Y-51769128D01*
X162960421Y-51465230D01*
X162967723Y-51195118D01*
X162994238Y-50923339D01*
X163045363Y-50614440D01*
X163126492Y-50232969D01*
X163243023Y-49743473D01*
X163326769Y-49404879D01*
X163483602Y-48765174D01*
X163597202Y-48264427D01*
X163668346Y-47878079D01*
X163697813Y-47581574D01*
X163686381Y-47350355D01*
X163634826Y-47159865D01*
X163543926Y-46985546D01*
X163414460Y-46802841D01*
X163409376Y-46796171D01*
X163228273Y-46542248D01*
X163084831Y-46311403D01*
X163028376Y-46197260D01*
X162966816Y-45957902D01*
X162958727Y-45743237D01*
X163002525Y-45607525D01*
X163046190Y-45586163D01*
X163152745Y-45639251D01*
X163340899Y-45778181D01*
X163561401Y-45965413D01*
X163919655Y-46267791D01*
X164286380Y-46531177D01*
X164685518Y-46766352D01*
X165141012Y-46984094D01*
X165676804Y-47195186D01*
X166316835Y-47410406D01*
X167085047Y-47640537D01*
X167608935Y-47787900D01*
X168149777Y-47941044D01*
X168694163Y-48101632D01*
X169196516Y-48255774D01*
X169611257Y-48389581D01*
X169816990Y-48460782D01*
X170719061Y-48852391D01*
X171536008Y-49335628D01*
X172255416Y-49896285D01*
X172864869Y-50520157D01*
X173351951Y-51193038D01*
X173704248Y-51900722D01*
X173909344Y-52629002D01*
X173959147Y-53200363D01*
X173894770Y-53684969D01*
G36*
X173932292Y-61631393D02*
G01*
X173847230Y-61658491D01*
X173697119Y-61558554D01*
X173475631Y-61326510D01*
X173176435Y-60957290D01*
X172979631Y-60698154D01*
X172256694Y-59835512D01*
X171494898Y-59134861D01*
X170685577Y-58591574D01*
X169820066Y-58201024D01*
X168889699Y-57958582D01*
X167885810Y-57859620D01*
X167658822Y-57856638D01*
X166778613Y-57920853D01*
X166000095Y-58108542D01*
X165329721Y-58415097D01*
X164773943Y-58835908D01*
X164339215Y-59366365D01*
X164031990Y-60001859D01*
X163888118Y-60550171D01*
X163845313Y-61136781D01*
X163905421Y-61778312D01*
X164060257Y-62401891D01*
X164112078Y-62544570D01*
X164468985Y-63237488D01*
X164972771Y-63886232D01*
X165603468Y-64475541D01*
X166341110Y-64990153D01*
X167165727Y-65414806D01*
X168057351Y-65734239D01*
X168401386Y-65822971D01*
X169115589Y-65943126D01*
X169850354Y-65986448D01*
X170558110Y-65954212D01*
X171191288Y-65847693D01*
X171541459Y-65738786D01*
X171988648Y-65506571D01*
X172392664Y-65189440D01*
X172713884Y-64825322D01*
X172912685Y-64452149D01*
X172924640Y-64414673D01*
X173029272Y-63899731D01*
X173013562Y-63437499D01*
X172869139Y-63015200D01*
X172587633Y-62620057D01*
X172160671Y-62239292D01*
X171579884Y-61860127D01*
X171071297Y-61585768D01*
X170579144Y-61300780D01*
X170229406Y-61008401D01*
X169996114Y-60683356D01*
X169893601Y-60439519D01*
X169832941Y-60198742D01*
X169852237Y-60057789D01*
X169965074Y-60015092D01*
X170185039Y-60069087D01*
X170525721Y-60218206D01*
X170766865Y-60338862D01*
X171654234Y-60871867D01*
X172402266Y-61491943D01*
X173023710Y-62211708D01*
X173531314Y-63043782D01*
X173562525Y-63105779D01*
X173724471Y-63439123D01*
X173827666Y-63690679D01*
X173885333Y-63918864D01*
X173910698Y-64182093D01*
X173916987Y-64538783D01*
X173917130Y-64672113D01*
X173911018Y-65094810D01*
X173887942Y-65394808D01*
X173840793Y-65618452D01*
X173762464Y-65812089D01*
X173733766Y-65867635D01*
X173373499Y-66365713D01*
X172883747Y-66774189D01*
X172282774Y-67086193D01*
X171588844Y-67294857D01*
X170820218Y-67393309D01*
X169995159Y-67374681D01*
X169788299Y-67351708D01*
X168687063Y-67129552D01*
X167636909Y-66756851D01*
X166659149Y-66243475D01*
X165775099Y-65599296D01*
X165527199Y-65378138D01*
X164881320Y-64698224D01*
X164293026Y-63931549D01*
X163785836Y-63116351D01*
X163383268Y-62290867D01*
X163108843Y-61493334D01*
X163088578Y-61413420D01*
X163018756Y-61019032D01*
X162971756Y-60531359D01*
X162954791Y-60025730D01*
X162954806Y-60016420D01*
X162963914Y-59575731D01*
X162994759Y-59245907D01*
X163056316Y-58968962D01*
X163157559Y-58686910D01*
X163162422Y-58675041D01*
X163416167Y-58162260D01*
X163730698Y-57745899D01*
X164149232Y-57373949D01*
X164380981Y-57208582D01*
X165102146Y-56820422D01*
X165900186Y-56571279D01*
X166756531Y-56460295D01*
X167652613Y-56486614D01*
X168569863Y-56649380D01*
X169489711Y-56947736D01*
X170393589Y-57380825D01*
X170589857Y-57494944D01*
X171075764Y-57824845D01*
X171576678Y-58232372D01*
X172074176Y-58695723D01*
X172549839Y-59193095D01*
X172985247Y-59702684D01*
X173361977Y-60202687D01*
X173661610Y-60671300D01*
X173865725Y-61086720D01*
X173955900Y-61427144D01*
X173958636Y-61482329D01*
X173932292Y-61631393D01*
G37*
X173932292Y-61631393D02*
X173847230Y-61658491D01*
X173697119Y-61558554D01*
X173475631Y-61326510D01*
X173176435Y-60957290D01*
X172979631Y-60698154D01*
X172256694Y-59835512D01*
X171494898Y-59134861D01*
X170685577Y-58591574D01*
X169820066Y-58201024D01*
X168889699Y-57958582D01*
X167885810Y-57859620D01*
X167658822Y-57856638D01*
X166778613Y-57920853D01*
X166000095Y-58108542D01*
X165329721Y-58415097D01*
X164773943Y-58835908D01*
X164339215Y-59366365D01*
X164031990Y-60001859D01*
X163888118Y-60550171D01*
X163845313Y-61136781D01*
X163905421Y-61778312D01*
X164060257Y-62401891D01*
X164112078Y-62544570D01*
X164468985Y-63237488D01*
X164972771Y-63886232D01*
X165603468Y-64475541D01*
X166341110Y-64990153D01*
X167165727Y-65414806D01*
X168057351Y-65734239D01*
X168401386Y-65822971D01*
X169115589Y-65943126D01*
X169850354Y-65986448D01*
X170558110Y-65954212D01*
X171191288Y-65847693D01*
X171541459Y-65738786D01*
X171988648Y-65506571D01*
X172392664Y-65189440D01*
X172713884Y-64825322D01*
X172912685Y-64452149D01*
X172924640Y-64414673D01*
X173029272Y-63899731D01*
X173013562Y-63437499D01*
X172869139Y-63015200D01*
X172587633Y-62620057D01*
X172160671Y-62239292D01*
X171579884Y-61860127D01*
X171071297Y-61585768D01*
X170579144Y-61300780D01*
X170229406Y-61008401D01*
X169996114Y-60683356D01*
X169893601Y-60439519D01*
X169832941Y-60198742D01*
X169852237Y-60057789D01*
X169965074Y-60015092D01*
X170185039Y-60069087D01*
X170525721Y-60218206D01*
X170766865Y-60338862D01*
X171654234Y-60871867D01*
X172402266Y-61491943D01*
X173023710Y-62211708D01*
X173531314Y-63043782D01*
X173562525Y-63105779D01*
X173724471Y-63439123D01*
X173827666Y-63690679D01*
X173885333Y-63918864D01*
X173910698Y-64182093D01*
X173916987Y-64538783D01*
X173917130Y-64672113D01*
X173911018Y-65094810D01*
X173887942Y-65394808D01*
X173840793Y-65618452D01*
X173762464Y-65812089D01*
X173733766Y-65867635D01*
X173373499Y-66365713D01*
X172883747Y-66774189D01*
X172282774Y-67086193D01*
X171588844Y-67294857D01*
X170820218Y-67393309D01*
X169995159Y-67374681D01*
X169788299Y-67351708D01*
X168687063Y-67129552D01*
X167636909Y-66756851D01*
X166659149Y-66243475D01*
X165775099Y-65599296D01*
X165527199Y-65378138D01*
X164881320Y-64698224D01*
X164293026Y-63931549D01*
X163785836Y-63116351D01*
X163383268Y-62290867D01*
X163108843Y-61493334D01*
X163088578Y-61413420D01*
X163018756Y-61019032D01*
X162971756Y-60531359D01*
X162954791Y-60025730D01*
X162954806Y-60016420D01*
X162963914Y-59575731D01*
X162994759Y-59245907D01*
X163056316Y-58968962D01*
X163157559Y-58686910D01*
X163162422Y-58675041D01*
X163416167Y-58162260D01*
X163730698Y-57745899D01*
X164149232Y-57373949D01*
X164380981Y-57208582D01*
X165102146Y-56820422D01*
X165900186Y-56571279D01*
X166756531Y-56460295D01*
X167652613Y-56486614D01*
X168569863Y-56649380D01*
X169489711Y-56947736D01*
X170393589Y-57380825D01*
X170589857Y-57494944D01*
X171075764Y-57824845D01*
X171576678Y-58232372D01*
X172074176Y-58695723D01*
X172549839Y-59193095D01*
X172985247Y-59702684D01*
X173361977Y-60202687D01*
X173661610Y-60671300D01*
X173865725Y-61086720D01*
X173955900Y-61427144D01*
X173958636Y-61482329D01*
X173932292Y-61631393D01*
G36*
X173931852Y-84249216D02*
G01*
X173837139Y-84769894D01*
X173657382Y-85164676D01*
X173398704Y-85426232D01*
X173067224Y-85547233D01*
X172669064Y-85520349D01*
X172411577Y-85434772D01*
X172148128Y-85276557D01*
X171895826Y-85043768D01*
X171677294Y-84770789D01*
X171515155Y-84492004D01*
X171432030Y-84241799D01*
X171450541Y-84054557D01*
X171478517Y-84016575D01*
X171604259Y-83996520D01*
X171830486Y-84050612D01*
X171904724Y-84077884D01*
X172262543Y-84174824D01*
X172532706Y-84136586D01*
X172741520Y-83953239D01*
X172875033Y-83711511D01*
X172970169Y-83453365D01*
X173015130Y-83190968D01*
X173018649Y-82857272D01*
X173009737Y-82677503D01*
X172909556Y-82049599D01*
X172697341Y-81511279D01*
X172385470Y-81079162D01*
X171986318Y-80769864D01*
X171512262Y-80600004D01*
X171455373Y-80590440D01*
X170925445Y-80577632D01*
X170475033Y-80711155D01*
X170102678Y-80992416D01*
X169806919Y-81422828D01*
X169586295Y-82003799D01*
X169475779Y-82500829D01*
X169410723Y-82865504D01*
X169360397Y-83090183D01*
X169311364Y-83201846D01*
X169250186Y-83227470D01*
X169163428Y-83194034D01*
X169137376Y-83180256D01*
X168913797Y-82978039D01*
X168715216Y-82641595D01*
X168557690Y-82205797D01*
X168457275Y-81705515D01*
X168456876Y-81702382D01*
X168285373Y-80964701D01*
X167970156Y-80316144D01*
X167512932Y-79759075D01*
X166915405Y-79295857D01*
X166588234Y-79112072D01*
X166019850Y-78876941D01*
X165524139Y-78787970D01*
X165088055Y-78845286D01*
X164698548Y-79049017D01*
X164596999Y-79131489D01*
X164254191Y-79537162D01*
X164006062Y-80047901D01*
X163865889Y-80620284D01*
X163846949Y-81210894D01*
X163881537Y-81471157D01*
X163935262Y-81724671D01*
X164001232Y-81933696D01*
X164099249Y-82128366D01*
X164249112Y-82338813D01*
X164470620Y-82595169D01*
X164783573Y-82927565D01*
X164956053Y-83106406D01*
X165280947Y-83446875D01*
X165503438Y-83695703D01*
X165642301Y-83879526D01*
X165716310Y-84024981D01*
X165744242Y-84158706D01*
X165746797Y-84228240D01*
X165725526Y-84432960D01*
X165649064Y-84518095D01*
X165498440Y-84483695D01*
X165254679Y-84329808D01*
X165120361Y-84229860D01*
X164594745Y-83750094D01*
X164094799Y-83148794D01*
X163652103Y-82473653D01*
X163298238Y-81772367D01*
X163078567Y-81146163D01*
X163001613Y-80723146D01*
X162964710Y-80224613D01*
X162967456Y-79710120D01*
X163009449Y-79239225D01*
X163090285Y-78871483D01*
X163094020Y-78860619D01*
X163364782Y-78286734D01*
X163719306Y-77856087D01*
X164147718Y-77570822D01*
X164640147Y-77433088D01*
X165186719Y-77445029D01*
X165777562Y-77608794D01*
X166402803Y-77926528D01*
X166647308Y-78088047D01*
X167378651Y-78691129D01*
X168031039Y-79422559D01*
X168388685Y-79925286D01*
X168738465Y-80457302D01*
X168966368Y-80103232D01*
X169287682Y-79677125D01*
X169622591Y-79398222D01*
X170005872Y-79245725D01*
X170472300Y-79198835D01*
X170478560Y-79198829D01*
X170959485Y-79240555D01*
X171388895Y-79378124D01*
X171805482Y-79630125D01*
X172247938Y-80015145D01*
X172313985Y-80080557D01*
X172949784Y-80829983D01*
X173431698Y-81646663D01*
X173757243Y-82525188D01*
X173923933Y-83460151D01*
X173935403Y-83609970D01*
X173931852Y-84249216D01*
G37*
X173931852Y-84249216D02*
X173837139Y-84769894D01*
X173657382Y-85164676D01*
X173398704Y-85426232D01*
X173067224Y-85547233D01*
X172669064Y-85520349D01*
X172411577Y-85434772D01*
X172148128Y-85276557D01*
X171895826Y-85043768D01*
X171677294Y-84770789D01*
X171515155Y-84492004D01*
X171432030Y-84241799D01*
X171450541Y-84054557D01*
X171478517Y-84016575D01*
X171604259Y-83996520D01*
X171830486Y-84050612D01*
X171904724Y-84077884D01*
X172262543Y-84174824D01*
X172532706Y-84136586D01*
X172741520Y-83953239D01*
X172875033Y-83711511D01*
X172970169Y-83453365D01*
X173015130Y-83190968D01*
X173018649Y-82857272D01*
X173009737Y-82677503D01*
X172909556Y-82049599D01*
X172697341Y-81511279D01*
X172385470Y-81079162D01*
X171986318Y-80769864D01*
X171512262Y-80600004D01*
X171455373Y-80590440D01*
X170925445Y-80577632D01*
X170475033Y-80711155D01*
X170102678Y-80992416D01*
X169806919Y-81422828D01*
X169586295Y-82003799D01*
X169475779Y-82500829D01*
X169410723Y-82865504D01*
X169360397Y-83090183D01*
X169311364Y-83201846D01*
X169250186Y-83227470D01*
X169163428Y-83194034D01*
X169137376Y-83180256D01*
X168913797Y-82978039D01*
X168715216Y-82641595D01*
X168557690Y-82205797D01*
X168457275Y-81705515D01*
X168456876Y-81702382D01*
X168285373Y-80964701D01*
X167970156Y-80316144D01*
X167512932Y-79759075D01*
X166915405Y-79295857D01*
X166588234Y-79112072D01*
X166019850Y-78876941D01*
X165524139Y-78787970D01*
X165088055Y-78845286D01*
X164698548Y-79049017D01*
X164596999Y-79131489D01*
X164254191Y-79537162D01*
X164006062Y-80047901D01*
X163865889Y-80620284D01*
X163846949Y-81210894D01*
X163881537Y-81471157D01*
X163935262Y-81724671D01*
X164001232Y-81933696D01*
X164099249Y-82128366D01*
X164249112Y-82338813D01*
X164470620Y-82595169D01*
X164783573Y-82927565D01*
X164956053Y-83106406D01*
X165280947Y-83446875D01*
X165503438Y-83695703D01*
X165642301Y-83879526D01*
X165716310Y-84024981D01*
X165744242Y-84158706D01*
X165746797Y-84228240D01*
X165725526Y-84432960D01*
X165649064Y-84518095D01*
X165498440Y-84483695D01*
X165254679Y-84329808D01*
X165120361Y-84229860D01*
X164594745Y-83750094D01*
X164094799Y-83148794D01*
X163652103Y-82473653D01*
X163298238Y-81772367D01*
X163078567Y-81146163D01*
X163001613Y-80723146D01*
X162964710Y-80224613D01*
X162967456Y-79710120D01*
X163009449Y-79239225D01*
X163090285Y-78871483D01*
X163094020Y-78860619D01*
X163364782Y-78286734D01*
X163719306Y-77856087D01*
X164147718Y-77570822D01*
X164640147Y-77433088D01*
X165186719Y-77445029D01*
X165777562Y-77608794D01*
X166402803Y-77926528D01*
X166647308Y-78088047D01*
X167378651Y-78691129D01*
X168031039Y-79422559D01*
X168388685Y-79925286D01*
X168738465Y-80457302D01*
X168966368Y-80103232D01*
X169287682Y-79677125D01*
X169622591Y-79398222D01*
X170005872Y-79245725D01*
X170472300Y-79198835D01*
X170478560Y-79198829D01*
X170959485Y-79240555D01*
X171388895Y-79378124D01*
X171805482Y-79630125D01*
X172247938Y-80015145D01*
X172313985Y-80080557D01*
X172949784Y-80829983D01*
X173431698Y-81646663D01*
X173757243Y-82525188D01*
X173923933Y-83460151D01*
X173935403Y-83609970D01*
X173931852Y-84249216D01*
G36*
X195171267Y-69646557D02*
G01*
X195180207Y-69684128D01*
X195167821Y-69706502D01*
X195133143Y-69719797D01*
X195088308Y-69708263D01*
X195045377Y-69676890D01*
X195027861Y-69653455D01*
X195033013Y-69631528D01*
X195056417Y-69605216D01*
X195086228Y-69579418D01*
X195107622Y-69578004D01*
X195132255Y-69598341D01*
X195171267Y-69646557D01*
G37*
X195171267Y-69646557D02*
X195180207Y-69684128D01*
X195167821Y-69706502D01*
X195133143Y-69719797D01*
X195088308Y-69708263D01*
X195045377Y-69676890D01*
X195027861Y-69653455D01*
X195033013Y-69631528D01*
X195056417Y-69605216D01*
X195086228Y-69579418D01*
X195107622Y-69578004D01*
X195132255Y-69598341D01*
X195171267Y-69646557D01*
G36*
X196811112Y-69764733D02*
G01*
X194495151Y-67448773D01*
X195239567Y-66704357D01*
X195806741Y-67271531D01*
X195334096Y-67744176D01*
X195558602Y-67968682D01*
X196031247Y-67496037D01*
X196763847Y-68228637D01*
X196291202Y-68701282D01*
X196515709Y-68925789D01*
X196988354Y-68453144D01*
X196763847Y-68228637D01*
X196031247Y-67496037D01*
X195806741Y-67271531D01*
X195239567Y-66704357D01*
X195771292Y-66172632D01*
X198087253Y-68488592D01*
X196811112Y-69764733D01*
G37*
X196811112Y-69764733D02*
X194495151Y-67448773D01*
X195239567Y-66704357D01*
X195806741Y-67271531D01*
X195334096Y-67744176D01*
X195558602Y-67968682D01*
X196031247Y-67496037D01*
X196763847Y-68228637D01*
X196291202Y-68701282D01*
X196515709Y-68925789D01*
X196988354Y-68453144D01*
X196763847Y-68228637D01*
X196031247Y-67496037D01*
X195806741Y-67271531D01*
X195239567Y-66704357D01*
X195771292Y-66172632D01*
X198087253Y-68488592D01*
X196811112Y-69764733D01*
G36*
X195700396Y-71537153D02*
G01*
X195109589Y-70946346D01*
X196373915Y-69682020D01*
X196964722Y-70272827D01*
X195700396Y-71537153D01*
G37*
X195700396Y-71537153D02*
X195109589Y-70946346D01*
X196373915Y-69682020D01*
X196964722Y-70272827D01*
X195700396Y-71537153D01*
G36*
X193313538Y-69150295D02*
G01*
X192722732Y-68559489D01*
X193987058Y-67295163D01*
X194577864Y-67885969D01*
X193313538Y-69150295D01*
G37*
X193313538Y-69150295D02*
X192722732Y-68559489D01*
X193987058Y-67295163D01*
X194577864Y-67885969D01*
X193313538Y-69150295D01*
G36*
X194861451Y-70958162D02*
G01*
X193301723Y-69398434D01*
X193977258Y-68722898D01*
X194284602Y-69030242D01*
X194228417Y-69107879D01*
X194192572Y-69196449D01*
X194181979Y-69283279D01*
X194195664Y-69362999D01*
X194235673Y-69437904D01*
X194304336Y-69511252D01*
X194339043Y-69537728D01*
X194577864Y-69776550D01*
X194731473Y-69930159D01*
X194826418Y-69835214D01*
X194873558Y-69788839D01*
X194902687Y-69763454D01*
X194919016Y-69756019D01*
X194927761Y-69763491D01*
X194931542Y-69773890D01*
X194931597Y-69805295D01*
X194922507Y-69857936D01*
X194906159Y-69921502D01*
X194902231Y-69934468D01*
X194862740Y-70061426D01*
X195038990Y-70237675D01*
X195078548Y-70117716D01*
X195097736Y-70052817D01*
X195111080Y-69994704D01*
X195115889Y-69955234D01*
X195115829Y-69953323D01*
X195116120Y-69926562D01*
X195126332Y-69913526D01*
X195155049Y-69909278D01*
X195193102Y-69908891D01*
X195246705Y-69905293D01*
X195285507Y-69889819D01*
X195326060Y-69855441D01*
X195331303Y-69850240D01*
X195369670Y-69805994D01*
X195386879Y-69766610D01*
X195389955Y-69732352D01*
X195386020Y-69694994D01*
X195372071Y-69656923D01*
X195344896Y-69613543D01*
X195301276Y-69560259D01*
X195237998Y-69492474D01*
X195183310Y-69436966D01*
X195050509Y-69303905D01*
X194577864Y-69776550D01*
X194339043Y-69537728D01*
X194393471Y-69579249D01*
X194444778Y-69598271D01*
X194512423Y-69603183D01*
X194582494Y-69594092D01*
X194629732Y-69577424D01*
X194652058Y-69566524D01*
X194664843Y-69556542D01*
X194666893Y-69541417D01*
X194657020Y-69515088D01*
X194634031Y-69471492D01*
X194596736Y-69404568D01*
X194595247Y-69401892D01*
X194570943Y-69388652D01*
X194529620Y-69398839D01*
X194472869Y-69408176D01*
X194423461Y-69392177D01*
X194388116Y-69357136D01*
X194373553Y-69309343D01*
X194383243Y-69261779D01*
X194422221Y-69200956D01*
X194475864Y-69149955D01*
X194533821Y-69117611D01*
X194559404Y-69111389D01*
X194617221Y-69118527D01*
X194661903Y-69149867D01*
X194685892Y-69198134D01*
X194686945Y-69234209D01*
X194684756Y-69264788D01*
X194693171Y-69286747D01*
X194718572Y-69309525D01*
X194754485Y-69334066D01*
X194798455Y-69359101D01*
X194831859Y-69370742D01*
X194843545Y-69369075D01*
X194861322Y-69333854D01*
X194871794Y-69279030D01*
X194873661Y-69217880D01*
X194865619Y-69163676D01*
X194864151Y-69158940D01*
X194827547Y-69089373D01*
X194768495Y-69020397D01*
X194696805Y-68961334D01*
X194622290Y-68921507D01*
X194609709Y-68917215D01*
X194523681Y-68907026D01*
X194437386Y-68925406D01*
X194355976Y-68967948D01*
X194284602Y-69030242D01*
X193977258Y-68722898D01*
X194755106Y-67945051D01*
X196314834Y-69504779D01*
X194861451Y-70958162D01*
G37*
X194861451Y-70958162D02*
X193301723Y-69398434D01*
X193977258Y-68722898D01*
X194284602Y-69030242D01*
X194228417Y-69107879D01*
X194192572Y-69196449D01*
X194181979Y-69283279D01*
X194195664Y-69362999D01*
X194235673Y-69437904D01*
X194304336Y-69511252D01*
X194339043Y-69537728D01*
X194577864Y-69776550D01*
X194731473Y-69930159D01*
X194826418Y-69835214D01*
X194873558Y-69788839D01*
X194902687Y-69763454D01*
X194919016Y-69756019D01*
X194927761Y-69763491D01*
X194931542Y-69773890D01*
X194931597Y-69805295D01*
X194922507Y-69857936D01*
X194906159Y-69921502D01*
X194902231Y-69934468D01*
X194862740Y-70061426D01*
X195038990Y-70237675D01*
X195078548Y-70117716D01*
X195097736Y-70052817D01*
X195111080Y-69994704D01*
X195115889Y-69955234D01*
X195115829Y-69953323D01*
X195116120Y-69926562D01*
X195126332Y-69913526D01*
X195155049Y-69909278D01*
X195193102Y-69908891D01*
X195246705Y-69905293D01*
X195285507Y-69889819D01*
X195326060Y-69855441D01*
X195331303Y-69850240D01*
X195369670Y-69805994D01*
X195386879Y-69766610D01*
X195389955Y-69732352D01*
X195386020Y-69694994D01*
X195372071Y-69656923D01*
X195344896Y-69613543D01*
X195301276Y-69560259D01*
X195237998Y-69492474D01*
X195183310Y-69436966D01*
X195050509Y-69303905D01*
X194577864Y-69776550D01*
X194339043Y-69537728D01*
X194393471Y-69579249D01*
X194444778Y-69598271D01*
X194512423Y-69603183D01*
X194582494Y-69594092D01*
X194629732Y-69577424D01*
X194652058Y-69566524D01*
X194664843Y-69556542D01*
X194666893Y-69541417D01*
X194657020Y-69515088D01*
X194634031Y-69471492D01*
X194596736Y-69404568D01*
X194595247Y-69401892D01*
X194570943Y-69388652D01*
X194529620Y-69398839D01*
X194472869Y-69408176D01*
X194423461Y-69392177D01*
X194388116Y-69357136D01*
X194373553Y-69309343D01*
X194383243Y-69261779D01*
X194422221Y-69200956D01*
X194475864Y-69149955D01*
X194533821Y-69117611D01*
X194559404Y-69111389D01*
X194617221Y-69118527D01*
X194661903Y-69149867D01*
X194685892Y-69198134D01*
X194686945Y-69234209D01*
X194684756Y-69264788D01*
X194693171Y-69286747D01*
X194718572Y-69309525D01*
X194754485Y-69334066D01*
X194798455Y-69359101D01*
X194831859Y-69370742D01*
X194843545Y-69369075D01*
X194861322Y-69333854D01*
X194871794Y-69279030D01*
X194873661Y-69217880D01*
X194865619Y-69163676D01*
X194864151Y-69158940D01*
X194827547Y-69089373D01*
X194768495Y-69020397D01*
X194696805Y-68961334D01*
X194622290Y-68921507D01*
X194609709Y-68917215D01*
X194523681Y-68907026D01*
X194437386Y-68925406D01*
X194355976Y-68967948D01*
X194284602Y-69030242D01*
X193977258Y-68722898D01*
X194755106Y-67945051D01*
X196314834Y-69504779D01*
X194861451Y-70958162D01*
G36*
X194743290Y-72234304D02*
G01*
X193573493Y-71064507D01*
X194152483Y-70485518D01*
X195322280Y-71655314D01*
X194743290Y-72234304D01*
G37*
X194743290Y-72234304D02*
X193573493Y-71064507D01*
X194152483Y-70485518D01*
X195322280Y-71655314D01*
X194743290Y-72234304D01*
G36*
X193195377Y-70686391D02*
G01*
X192025581Y-69516595D01*
X192604570Y-68937605D01*
X193774367Y-70107402D01*
X193195377Y-70686391D01*
G37*
X193195377Y-70686391D02*
X192025581Y-69516595D01*
X192604570Y-68937605D01*
X193774367Y-70107402D01*
X193195377Y-70686391D01*
D11*
X180138665Y-93038097D02*
X180138665Y-93547545D01*
X181183665Y-93038097D02*
X181183665Y-93547545D01*
X165996530Y-93038097D02*
X165996530Y-93547545D01*
X167041530Y-93038097D02*
X167041530Y-93547545D01*
X157375972Y-83076219D02*
X156866524Y-83076219D01*
X157375972Y-84121219D02*
X156866524Y-84121219D01*
X157375972Y-68934084D02*
X156866524Y-68934084D01*
X157375972Y-69979084D02*
X156866524Y-69979084D01*
X181701165Y-89953748D02*
X182031165Y-89953748D01*
X182031165Y-89953748D02*
X182031165Y-96493748D01*
X182031165Y-96493748D02*
X181701165Y-96493748D01*
X179621165Y-89953748D02*
X179291165Y-89953748D01*
X179291165Y-89953748D02*
X179291165Y-96493748D01*
X179291165Y-96493748D02*
X179621165Y-96493748D01*
X167559030Y-89953748D02*
X167889030Y-89953748D01*
X167889030Y-89953748D02*
X167889030Y-96493748D01*
X167889030Y-96493748D02*
X167559030Y-96493748D01*
X165479030Y-89953748D02*
X165149030Y-89953748D01*
X165149030Y-89953748D02*
X165149030Y-96493748D01*
X165149030Y-96493748D02*
X165479030Y-96493748D01*
X160164001Y-84638719D02*
X160164001Y-84968719D01*
X160164001Y-84968719D02*
X153624001Y-84968719D01*
X153624001Y-84968719D02*
X153624001Y-84638719D01*
X160164001Y-82558719D02*
X160164001Y-82228719D01*
X160164001Y-82228719D02*
X153624001Y-82228719D01*
X153624001Y-82228719D02*
X153624001Y-82558719D01*
X160164001Y-70496584D02*
X160164001Y-70826584D01*
X160164001Y-70826584D02*
X153624001Y-70826584D01*
X153624001Y-70826584D02*
X153624001Y-70496584D01*
X160164001Y-68416584D02*
X160164001Y-68086584D01*
X160164001Y-68086584D02*
X153624001Y-68086584D01*
X153624001Y-68086584D02*
X153624001Y-68416584D01*
X157411495Y-99706612D02*
X159292399Y-97825708D01*
X151980915Y-94276032D02*
X157411495Y-99706612D01*
X153861819Y-92395128D02*
X159292399Y-97825708D01*
X151980915Y-94276032D02*
X153861819Y-92395128D01*
X151082889Y-93378006D02*
X150142437Y-92437554D01*
X150142437Y-92437554D02*
X151082889Y-91497102D01*
X154879661Y-77513312D02*
X154879661Y-75053312D01*
X154879661Y-75053312D02*
X153409661Y-75053312D01*
X153409661Y-75053312D02*
X153409661Y-77513312D01*
X154879661Y-63371177D02*
X154879661Y-60911177D01*
X154879661Y-60911177D02*
X153409661Y-60911177D01*
X153409661Y-60911177D02*
X153409661Y-63371177D01*
X154879661Y-49229041D02*
X154879661Y-46769041D01*
X154879661Y-46769041D02*
X153409661Y-46769041D01*
X153409661Y-46769041D02*
X153409661Y-49229041D01*
X161265981Y-76736991D02*
G75*
G03*
X161265981Y-76736991I-5000000J0D01*
G01*
X158641981Y-71676991D02*
X153889981Y-71676991D01*
X156261240Y-82326989D02*
G75*
G02*
X153890165Y-71676991I4741J5589998D01*
G01*
X156270722Y-82326989D02*
G75*
G03*
X158641797Y-71676991I-4741J5589998D01*
G01*
X161265981Y-62594856D02*
G75*
G03*
X161265981Y-62594856I-5000000J0D01*
G01*
X158641981Y-57534856D02*
X153889981Y-57534856D01*
X156261240Y-68184854D02*
G75*
G02*
X153890165Y-57534856I4741J5589998D01*
G01*
X156270722Y-68184854D02*
G75*
G03*
X158641797Y-57534856I-4741J5589998D01*
G01*
X161265981Y-48452720D02*
G75*
G03*
X161265981Y-48452720I-5000000J0D01*
G01*
X158641981Y-43392720D02*
X153889981Y-43392720D01*
X156261240Y-54042718D02*
G75*
G02*
X153890165Y-43392720I4741J5589998D01*
G01*
X156270722Y-54042718D02*
G75*
G03*
X158641797Y-43392720I-4741J5589998D01*
G01*
X166738233Y-39164129D02*
X168477716Y-37424646D01*
X168477716Y-37424646D02*
X167438269Y-36385199D01*
X167438269Y-36385199D02*
X165698786Y-38124682D01*
X185900827Y-43251207D02*
X184161344Y-41511724D01*
X184161344Y-41511724D02*
X183121897Y-42551171D01*
X183121897Y-42551171D02*
X184861380Y-44290654D01*
X191027351Y-60398546D02*
X189287868Y-58659063D01*
X189287868Y-58659063D02*
X188248421Y-59698510D01*
X188248421Y-59698510D02*
X189987904Y-61437993D01*
X173095877Y-39595465D02*
G75*
G03*
X173095877Y-39595465I-5000000J0D01*
G01*
X173353923Y-37697590D02*
X169993752Y-34337419D01*
X164139799Y-43544838D02*
G75*
G02*
X169993882Y-34337549I3956078J3949373D01*
G01*
X164146504Y-43551543D02*
G75*
G03*
X173353793Y-37697460I3949373J3956078D01*
G01*
X188326958Y-44545212D02*
G75*
G03*
X188326958Y-44545212I-5000000J0D01*
G01*
X181429083Y-39287166D02*
X178068912Y-42647337D01*
X187276331Y-48501290D02*
G75*
G02*
X178069042Y-42647207I-3949373J3956078D01*
G01*
X187283036Y-48494585D02*
G75*
G03*
X181428953Y-39287296I-3956078J3949373D01*
G01*
X192187760Y-62929989D02*
G75*
G03*
X192187760Y-62929989I-5000000J0D01*
G01*
X192445806Y-61032114D02*
X189085635Y-57671943D01*
X183231682Y-66879362D02*
G75*
G02*
X189085765Y-57672073I3956078J3949373D01*
G01*
X183238387Y-66886067D02*
G75*
G03*
X192445676Y-61031984I3949373J3956078D01*
G01*
X205827095Y-65256369D02*
X207566578Y-66995852D01*
X207566578Y-66995852D02*
X208606025Y-65956405D01*
X208606025Y-65956405D02*
X206866542Y-64216922D01*
X211816290Y-84595740D02*
X213555773Y-82856257D01*
X213555773Y-82856257D02*
X212516326Y-81816810D01*
X212516326Y-81816810D02*
X210776843Y-83556293D01*
X200888708Y-96708088D02*
X203348708Y-96708088D01*
X203348708Y-96708088D02*
X203348708Y-95238088D01*
X203348708Y-95238088D02*
X200888708Y-95238088D01*
X210572537Y-66790791D02*
G75*
G03*
X210572537Y-66790791I-5000000J0D01*
G01*
X207470412Y-72048837D02*
X210830583Y-68688666D01*
X201623164Y-62834713D02*
G75*
G02*
X210830453Y-68688796I3949373J-3956078D01*
G01*
X201616459Y-62841418D02*
G75*
G03*
X207470542Y-72048707I3956078J-3949373D01*
G01*
X215522284Y-82021872D02*
G75*
G03*
X215522284Y-82021872I-5000000J0D01*
G01*
X215780330Y-80123997D02*
X212420159Y-76763826D01*
X206566206Y-85971245D02*
G75*
G02*
X212420289Y-76763956I3956078J3949373D01*
G01*
X206572911Y-85977950D02*
G75*
G03*
X215780200Y-80123867I3949373J3956078D01*
G01*
X206665029Y-93851768D02*
G75*
G03*
X206665029Y-93851768I-5000000J0D01*
G01*
X206725029Y-96227768D02*
X206725029Y-91475768D01*
X196075031Y-93847027D02*
G75*
G02*
X206725029Y-91475952I5589998J-4741D01*
G01*
X196075031Y-93856509D02*
G75*
G03*
X206725029Y-96227584I5589998J4741D01*
G01*
X186746572Y-96708088D02*
X189206572Y-96708088D01*
X189206572Y-96708088D02*
X189206572Y-95238088D01*
X189206572Y-95238088D02*
X186746572Y-95238088D01*
X172604437Y-96708088D02*
X175064437Y-96708088D01*
X175064437Y-96708088D02*
X175064437Y-95238088D01*
X175064437Y-95238088D02*
X172604437Y-95238088D01*
X158058497Y-93190623D02*
X156319014Y-91451140D01*
X156319014Y-91451140D02*
X155279567Y-92490587D01*
X155279567Y-92490587D02*
X157019050Y-94230070D01*
X192522893Y-93851768D02*
G75*
G03*
X192522893Y-93851768I-5000000J0D01*
G01*
X192582893Y-96227768D02*
X192582893Y-91475768D01*
X181932895Y-93847027D02*
G75*
G02*
X192582893Y-91475952I5589998J-4741D01*
G01*
X181932895Y-93856509D02*
G75*
G03*
X192582893Y-96227584I5589998J4741D01*
G01*
X178380758Y-93851768D02*
G75*
G03*
X178380758Y-93851768I-5000000J0D01*
G01*
X178440758Y-96227768D02*
X178440758Y-91475768D01*
X167790760Y-93847027D02*
G75*
G02*
X178440758Y-91475952I5589998J-4741D01*
G01*
X167790760Y-93856509D02*
G75*
G03*
X178440758Y-96227584I5589998J4741D01*
G01*
X164285328Y-90832421D02*
G75*
G03*
X164285328Y-90832421I-5000000J0D01*
G01*
X154027282Y-92730296D02*
X157387453Y-96090467D01*
X163241406Y-86883048D02*
G75*
G02*
X157387323Y-96090337I-3956078J-3949373D01*
G01*
X163234701Y-86876343D02*
G75*
G03*
X154027412Y-92730426I-3949373J-3956078D01*
G01*
D12*
X180018307Y-96071915D02*
X179684974Y-95595725D01*
X179446879Y-96071915D02*
X179446879Y-95071915D01*
X179827831Y-95071915D01*
X179923069Y-95119535D01*
X179970688Y-95167154D01*
X180018307Y-95262392D01*
X180018307Y-95405249D01*
X179970688Y-95500487D01*
X179923069Y-95548106D01*
X179827831Y-95595725D01*
X179446879Y-95595725D01*
X180970688Y-96071915D02*
X180399260Y-96071915D01*
X180684974Y-96071915D02*
X180684974Y-95071915D01*
X180589736Y-95214773D01*
X180494498Y-95310011D01*
X180399260Y-95357630D01*
X181923069Y-96071915D02*
X181351641Y-96071915D01*
X181637355Y-96071915D02*
X181637355Y-95071915D01*
X181542117Y-95214773D01*
X181446879Y-95310011D01*
X181351641Y-95357630D01*
X165876172Y-96071915D02*
X165542839Y-95595725D01*
X165304744Y-96071915D02*
X165304744Y-95071915D01*
X165685696Y-95071915D01*
X165780934Y-95119535D01*
X165828553Y-95167154D01*
X165876172Y-95262392D01*
X165876172Y-95405249D01*
X165828553Y-95500487D01*
X165780934Y-95548106D01*
X165685696Y-95595725D01*
X165304744Y-95595725D01*
X166828553Y-96071915D02*
X166257125Y-96071915D01*
X166542839Y-96071915D02*
X166542839Y-95071915D01*
X166447601Y-95214773D01*
X166352363Y-95310011D01*
X166257125Y-95357630D01*
X167447601Y-95071915D02*
X167542839Y-95071915D01*
X167638077Y-95119535D01*
X167685696Y-95167154D01*
X167733315Y-95262392D01*
X167780934Y-95452868D01*
X167780934Y-95690963D01*
X167733315Y-95881439D01*
X167685696Y-95976677D01*
X167638077Y-96024296D01*
X167542839Y-96071915D01*
X167447601Y-96071915D01*
X167352363Y-96024296D01*
X167304744Y-95976677D01*
X167257125Y-95881439D01*
X167209506Y-95690963D01*
X167209506Y-95452868D01*
X167257125Y-95262392D01*
X167304744Y-95167154D01*
X167352363Y-95119535D01*
X167447601Y-95071915D01*
X155304148Y-83411832D02*
X154827958Y-83745166D01*
X155304148Y-83983261D02*
X154304148Y-83983261D01*
X154304148Y-83602308D01*
X154351768Y-83507070D01*
X154399387Y-83459451D01*
X154494625Y-83411832D01*
X154637482Y-83411832D01*
X154732720Y-83459451D01*
X154780339Y-83507070D01*
X154827958Y-83602308D01*
X154827958Y-83983261D01*
X155304148Y-82935642D02*
X155304148Y-82745166D01*
X155256529Y-82649927D01*
X155208910Y-82602308D01*
X155066053Y-82507070D01*
X154875577Y-82459451D01*
X154494625Y-82459451D01*
X154399387Y-82507070D01*
X154351768Y-82554689D01*
X154304148Y-82649927D01*
X154304148Y-82840404D01*
X154351768Y-82935642D01*
X154399387Y-82983261D01*
X154494625Y-83030880D01*
X154732720Y-83030880D01*
X154827958Y-82983261D01*
X154875577Y-82935642D01*
X154923196Y-82840404D01*
X154923196Y-82649927D01*
X154875577Y-82554689D01*
X154827958Y-82507070D01*
X154732720Y-82459451D01*
X155304148Y-69269697D02*
X154827958Y-69603031D01*
X155304148Y-69841126D02*
X154304148Y-69841126D01*
X154304148Y-69460173D01*
X154351768Y-69364935D01*
X154399387Y-69317316D01*
X154494625Y-69269697D01*
X154637482Y-69269697D01*
X154732720Y-69317316D01*
X154780339Y-69364935D01*
X154827958Y-69460173D01*
X154827958Y-69841126D01*
X154732720Y-68698269D02*
X154685101Y-68793507D01*
X154637482Y-68841126D01*
X154542244Y-68888745D01*
X154494625Y-68888745D01*
X154399387Y-68841126D01*
X154351768Y-68793507D01*
X154304148Y-68698269D01*
X154304148Y-68507792D01*
X154351768Y-68412554D01*
X154399387Y-68364935D01*
X154494625Y-68317316D01*
X154542244Y-68317316D01*
X154637482Y-68364935D01*
X154685101Y-68412554D01*
X154732720Y-68507792D01*
X154732720Y-68698269D01*
X154780339Y-68793507D01*
X154827958Y-68841126D01*
X154923196Y-68888745D01*
X155113672Y-68888745D01*
X155208910Y-68841126D01*
X155256529Y-68793507D01*
X155304148Y-68698269D01*
X155304148Y-68507792D01*
X155256529Y-68412554D01*
X155208910Y-68364935D01*
X155113672Y-68317316D01*
X154923196Y-68317316D01*
X154827958Y-68364935D01*
X154780339Y-68412554D01*
X154732720Y-68507792D01*
X180140945Y-91475721D02*
X179807612Y-90999531D01*
X179569516Y-91475721D02*
X179569516Y-90475721D01*
X179950469Y-90475721D01*
X180045707Y-90523341D01*
X180093326Y-90570960D01*
X180140945Y-90666198D01*
X180140945Y-90809055D01*
X180093326Y-90904293D01*
X180045707Y-90951912D01*
X179950469Y-90999531D01*
X179569516Y-90999531D01*
X180998088Y-90809055D02*
X180998088Y-91475721D01*
X180759992Y-90428102D02*
X180521897Y-91142388D01*
X181140945Y-91142388D01*
X165998810Y-91475721D02*
X165665477Y-90999531D01*
X165427381Y-91475721D02*
X165427381Y-90475721D01*
X165808334Y-90475721D01*
X165903572Y-90523341D01*
X165951191Y-90570960D01*
X165998810Y-90666198D01*
X165998810Y-90809055D01*
X165951191Y-90904293D01*
X165903572Y-90951912D01*
X165808334Y-90999531D01*
X165427381Y-90999531D01*
X166332143Y-90475721D02*
X166951191Y-90475721D01*
X166617857Y-90856674D01*
X166760715Y-90856674D01*
X166855953Y-90904293D01*
X166903572Y-90951912D01*
X166951191Y-91047150D01*
X166951191Y-91285245D01*
X166903572Y-91380483D01*
X166855953Y-91428102D01*
X166760715Y-91475721D01*
X166475000Y-91475721D01*
X166379762Y-91428102D01*
X166332143Y-91380483D01*
X159546788Y-83411832D02*
X159070598Y-83745166D01*
X159546788Y-83983261D02*
X158546788Y-83983261D01*
X158546788Y-83602308D01*
X158594408Y-83507070D01*
X158642027Y-83459451D01*
X158737265Y-83411832D01*
X158880122Y-83411832D01*
X158975360Y-83459451D01*
X159022979Y-83507070D01*
X159070598Y-83602308D01*
X159070598Y-83983261D01*
X158642027Y-83030880D02*
X158594408Y-82983261D01*
X158546788Y-82888023D01*
X158546788Y-82649927D01*
X158594408Y-82554689D01*
X158642027Y-82507070D01*
X158737265Y-82459451D01*
X158832503Y-82459451D01*
X158975360Y-82507070D01*
X159546788Y-83078499D01*
X159546788Y-82459451D01*
X159546788Y-69269697D02*
X159070598Y-69603031D01*
X159546788Y-69841126D02*
X158546788Y-69841126D01*
X158546788Y-69460173D01*
X158594408Y-69364935D01*
X158642027Y-69317316D01*
X158737265Y-69269697D01*
X158880122Y-69269697D01*
X158975360Y-69317316D01*
X159022979Y-69364935D01*
X159070598Y-69460173D01*
X159070598Y-69841126D01*
X159546788Y-68317316D02*
X159546788Y-68888745D01*
X159546788Y-68603031D02*
X158546788Y-68603031D01*
X158689646Y-68698269D01*
X158784884Y-68793507D01*
X158832503Y-68888745D01*
X152528416Y-89339752D02*
X152023340Y-89844828D01*
X151888653Y-89912172D01*
X151753966Y-89912172D01*
X151619279Y-89844828D01*
X151551936Y-89777485D01*
X152764119Y-89710141D02*
X152831462Y-89710141D01*
X152932477Y-89743813D01*
X153100836Y-89912172D01*
X153134508Y-90013187D01*
X153134508Y-90080531D01*
X153100836Y-90181546D01*
X153033493Y-90248889D01*
X152898806Y-90316233D01*
X152090684Y-90316233D01*
X152528416Y-90753966D01*
X153283928Y-74151604D02*
X153283928Y-73151604D01*
X153522023Y-73151604D01*
X153664880Y-73199224D01*
X153760118Y-73294462D01*
X153807737Y-73389700D01*
X153855356Y-73580176D01*
X153855356Y-73723033D01*
X153807737Y-73913509D01*
X153760118Y-74008747D01*
X153664880Y-74103985D01*
X153522023Y-74151604D01*
X153283928Y-74151604D01*
X154236309Y-73246843D02*
X154283928Y-73199224D01*
X154379166Y-73151604D01*
X154617261Y-73151604D01*
X154712499Y-73199224D01*
X154760118Y-73246843D01*
X154807737Y-73342081D01*
X154807737Y-73437319D01*
X154760118Y-73580176D01*
X154188690Y-74151604D01*
X154807737Y-74151604D01*
X155664880Y-73484938D02*
X155664880Y-74151604D01*
X155426785Y-73103985D02*
X155188690Y-73818271D01*
X155807737Y-73818271D01*
X153283928Y-60009469D02*
X153283928Y-59009469D01*
X153522023Y-59009469D01*
X153664880Y-59057089D01*
X153760118Y-59152327D01*
X153807737Y-59247565D01*
X153855356Y-59438041D01*
X153855356Y-59580898D01*
X153807737Y-59771374D01*
X153760118Y-59866612D01*
X153664880Y-59961850D01*
X153522023Y-60009469D01*
X153283928Y-60009469D01*
X154236309Y-59104708D02*
X154283928Y-59057089D01*
X154379166Y-59009469D01*
X154617261Y-59009469D01*
X154712499Y-59057089D01*
X154760118Y-59104708D01*
X154807737Y-59199946D01*
X154807737Y-59295184D01*
X154760118Y-59438041D01*
X154188690Y-60009469D01*
X154807737Y-60009469D01*
X155141071Y-59009469D02*
X155760118Y-59009469D01*
X155426785Y-59390422D01*
X155569642Y-59390422D01*
X155664880Y-59438041D01*
X155712499Y-59485660D01*
X155760118Y-59580898D01*
X155760118Y-59818993D01*
X155712499Y-59914231D01*
X155664880Y-59961850D01*
X155569642Y-60009469D01*
X155283928Y-60009469D01*
X155188690Y-59961850D01*
X155141071Y-59914231D01*
X153283928Y-45867333D02*
X153283928Y-44867333D01*
X153522023Y-44867333D01*
X153664880Y-44914953D01*
X153760118Y-45010191D01*
X153807737Y-45105429D01*
X153855356Y-45295905D01*
X153855356Y-45438762D01*
X153807737Y-45629238D01*
X153760118Y-45724476D01*
X153664880Y-45819714D01*
X153522023Y-45867333D01*
X153283928Y-45867333D01*
X154236309Y-44962572D02*
X154283928Y-44914953D01*
X154379166Y-44867333D01*
X154617261Y-44867333D01*
X154712499Y-44914953D01*
X154760118Y-44962572D01*
X154807737Y-45057810D01*
X154807737Y-45153048D01*
X154760118Y-45295905D01*
X154188690Y-45867333D01*
X154807737Y-45867333D01*
X155188690Y-44962572D02*
X155236309Y-44914953D01*
X155331547Y-44867333D01*
X155569642Y-44867333D01*
X155664880Y-44914953D01*
X155712499Y-44962572D01*
X155760118Y-45057810D01*
X155760118Y-45153048D01*
X155712499Y-45295905D01*
X155141071Y-45867333D01*
X155760118Y-45867333D01*
X158486128Y-77741936D02*
X157486128Y-77741936D01*
X157486128Y-77503841D01*
X157533748Y-77360984D01*
X157628986Y-77265746D01*
X157724224Y-77218127D01*
X157914700Y-77170508D01*
X158057557Y-77170508D01*
X158248033Y-77218127D01*
X158343271Y-77265746D01*
X158438509Y-77360984D01*
X158486128Y-77503841D01*
X158486128Y-77741936D01*
X157581367Y-76789555D02*
X157533748Y-76741936D01*
X157486128Y-76646698D01*
X157486128Y-76408603D01*
X157533748Y-76313365D01*
X157581367Y-76265746D01*
X157676605Y-76218127D01*
X157771843Y-76218127D01*
X157914700Y-76265746D01*
X158486128Y-76837174D01*
X158486128Y-76218127D01*
X158486128Y-75265746D02*
X158486128Y-75837174D01*
X158486128Y-75551460D02*
X157486128Y-75551460D01*
X157628986Y-75646698D01*
X157724224Y-75741936D01*
X157771843Y-75837174D01*
X158486128Y-63599801D02*
X157486128Y-63599801D01*
X157486128Y-63361706D01*
X157533748Y-63218849D01*
X157628986Y-63123611D01*
X157724224Y-63075992D01*
X157914700Y-63028373D01*
X158057557Y-63028373D01*
X158248033Y-63075992D01*
X158343271Y-63123611D01*
X158438509Y-63218849D01*
X158486128Y-63361706D01*
X158486128Y-63599801D01*
X157581367Y-62647420D02*
X157533748Y-62599801D01*
X157486128Y-62504563D01*
X157486128Y-62266468D01*
X157533748Y-62171230D01*
X157581367Y-62123611D01*
X157676605Y-62075992D01*
X157771843Y-62075992D01*
X157914700Y-62123611D01*
X158486128Y-62695039D01*
X158486128Y-62075992D01*
X157486128Y-61456944D02*
X157486128Y-61361706D01*
X157533748Y-61266468D01*
X157581367Y-61218849D01*
X157676605Y-61171230D01*
X157867081Y-61123611D01*
X158105176Y-61123611D01*
X158295652Y-61171230D01*
X158390890Y-61218849D01*
X158438509Y-61266468D01*
X158486128Y-61361706D01*
X158486128Y-61456944D01*
X158438509Y-61552182D01*
X158390890Y-61599801D01*
X158295652Y-61647420D01*
X158105176Y-61695039D01*
X157867081Y-61695039D01*
X157676605Y-61647420D01*
X157581367Y-61599801D01*
X157533748Y-61552182D01*
X157486128Y-61456944D01*
X158486128Y-49457665D02*
X157486128Y-49457665D01*
X157486128Y-49219570D01*
X157533748Y-49076713D01*
X157628986Y-48981475D01*
X157724224Y-48933856D01*
X157914700Y-48886237D01*
X158057557Y-48886237D01*
X158248033Y-48933856D01*
X158343271Y-48981475D01*
X158438509Y-49076713D01*
X158486128Y-49219570D01*
X158486128Y-49457665D01*
X158486128Y-47933856D02*
X158486128Y-48505284D01*
X158486128Y-48219570D02*
X157486128Y-48219570D01*
X157628986Y-48314808D01*
X157724224Y-48410046D01*
X157771843Y-48505284D01*
X158486128Y-47457665D02*
X158486128Y-47267189D01*
X158438509Y-47171951D01*
X158390890Y-47124332D01*
X158248033Y-47029094D01*
X158057557Y-46981475D01*
X157676605Y-46981475D01*
X157581367Y-47029094D01*
X157533748Y-47076713D01*
X157486128Y-47171951D01*
X157486128Y-47362427D01*
X157533748Y-47457665D01*
X157581367Y-47505284D01*
X157676605Y-47552903D01*
X157914700Y-47552903D01*
X158009938Y-47505284D01*
X158057557Y-47457665D01*
X158105176Y-47362427D01*
X158105176Y-47171951D01*
X158057557Y-47076713D01*
X158009938Y-47029094D01*
X157914700Y-46981475D01*
X168168945Y-35683816D02*
X168876052Y-34976710D01*
X169044411Y-35145068D01*
X169111754Y-35279755D01*
X169111754Y-35414442D01*
X169078082Y-35515458D01*
X168977067Y-35683816D01*
X168876052Y-35784832D01*
X168707693Y-35885847D01*
X168606678Y-35919519D01*
X168471991Y-35919519D01*
X168337304Y-35852175D01*
X168168945Y-35683816D01*
X169246441Y-36761313D02*
X168842380Y-36357252D01*
X169044411Y-36559282D02*
X169751518Y-35852175D01*
X169583159Y-35885847D01*
X169448472Y-35885847D01*
X169347457Y-35852175D01*
X170054563Y-36761313D02*
X170020892Y-36660297D01*
X170020892Y-36592954D01*
X170054563Y-36491939D01*
X170088235Y-36458267D01*
X170189250Y-36424595D01*
X170256594Y-36424595D01*
X170357609Y-36458267D01*
X170492296Y-36592954D01*
X170525968Y-36693969D01*
X170525968Y-36761313D01*
X170492296Y-36862328D01*
X170458624Y-36896000D01*
X170357609Y-36929671D01*
X170290266Y-36929671D01*
X170189250Y-36896000D01*
X170054563Y-36761313D01*
X169953548Y-36727641D01*
X169886205Y-36727641D01*
X169785189Y-36761313D01*
X169650502Y-36896000D01*
X169616831Y-36997015D01*
X169616831Y-37064358D01*
X169650502Y-37165374D01*
X169785189Y-37300061D01*
X169886205Y-37333732D01*
X169953548Y-37333732D01*
X170054563Y-37300061D01*
X170189250Y-37165374D01*
X170222922Y-37064358D01*
X170222922Y-36997015D01*
X170189250Y-36896000D01*
X181183077Y-42704377D02*
X180475971Y-41997270D01*
X180644329Y-41828911D01*
X180779016Y-41761568D01*
X180913703Y-41761568D01*
X181014719Y-41795240D01*
X181183077Y-41896255D01*
X181284093Y-41997270D01*
X181385108Y-42165629D01*
X181418780Y-42266644D01*
X181418780Y-42401331D01*
X181351436Y-42536018D01*
X181183077Y-42704377D01*
X182260574Y-41626881D02*
X181856513Y-42030942D01*
X182058543Y-41828911D02*
X181351436Y-41121804D01*
X181385108Y-41290163D01*
X181385108Y-41424850D01*
X181351436Y-41525866D01*
X181789169Y-40684072D02*
X182260574Y-40212667D01*
X182664635Y-41222820D01*
X186486378Y-60735600D02*
X185779272Y-60028493D01*
X185947630Y-59860134D01*
X186082317Y-59792791D01*
X186217004Y-59792791D01*
X186318020Y-59826463D01*
X186486378Y-59927478D01*
X186587394Y-60028493D01*
X186688409Y-60196852D01*
X186722081Y-60297867D01*
X186722081Y-60432554D01*
X186654737Y-60567241D01*
X186486378Y-60735600D01*
X187563875Y-59658104D02*
X187159814Y-60062165D01*
X187361844Y-59860134D02*
X186654737Y-59153027D01*
X186688409Y-59321386D01*
X186688409Y-59456073D01*
X186654737Y-59557089D01*
X187462859Y-58344905D02*
X187328172Y-58479592D01*
X187294501Y-58580608D01*
X187294501Y-58647951D01*
X187328172Y-58816310D01*
X187429188Y-58984669D01*
X187698562Y-59254043D01*
X187799577Y-59287714D01*
X187866920Y-59287714D01*
X187967936Y-59254043D01*
X188102623Y-59119356D01*
X188136294Y-59018340D01*
X188136294Y-58950997D01*
X188102623Y-58849982D01*
X187934264Y-58681623D01*
X187833249Y-58647951D01*
X187765905Y-58647951D01*
X187664890Y-58681623D01*
X187530203Y-58816310D01*
X187496531Y-58917325D01*
X187496531Y-58984669D01*
X187530203Y-59085684D01*
X168971342Y-42188189D02*
X168264236Y-41481082D01*
X168432594Y-41312723D01*
X168567281Y-41245380D01*
X168701968Y-41245380D01*
X168802984Y-41279052D01*
X168971342Y-41380067D01*
X169072358Y-41481082D01*
X169173373Y-41649441D01*
X169207045Y-41750456D01*
X169207045Y-41885143D01*
X169139701Y-42019830D01*
X168971342Y-42188189D01*
X170048839Y-41110693D02*
X169644778Y-41514754D01*
X169846808Y-41312723D02*
X169139701Y-40605616D01*
X169173373Y-40773975D01*
X169173373Y-40908662D01*
X169139701Y-41009678D01*
X169981495Y-39763823D02*
X169644778Y-40100540D01*
X169947823Y-40470929D01*
X169947823Y-40403586D01*
X169981495Y-40302571D01*
X170149854Y-40134212D01*
X170250869Y-40100540D01*
X170318213Y-40100540D01*
X170419228Y-40134212D01*
X170587587Y-40302571D01*
X170621258Y-40403586D01*
X170621258Y-40470929D01*
X170587587Y-40571945D01*
X170419228Y-40740303D01*
X170318213Y-40773975D01*
X170250869Y-40773975D01*
X180734232Y-45420676D02*
X181441339Y-44713570D01*
X181609698Y-44881928D01*
X181677041Y-45016615D01*
X181677041Y-45151302D01*
X181643369Y-45252318D01*
X181542354Y-45420676D01*
X181441339Y-45521692D01*
X181272980Y-45622707D01*
X181171965Y-45656379D01*
X181037278Y-45656379D01*
X180902591Y-45589035D01*
X180734232Y-45420676D01*
X181811728Y-46498173D02*
X181407667Y-46094112D01*
X181609698Y-46296142D02*
X182316805Y-45589035D01*
X182148446Y-45622707D01*
X182013759Y-45622707D01*
X181912744Y-45589035D01*
X182889224Y-46632860D02*
X182417820Y-47104264D01*
X182990240Y-46195127D02*
X182316805Y-46531844D01*
X182754537Y-46969577D01*
X188063225Y-65522713D02*
X187356119Y-64815606D01*
X187524477Y-64647247D01*
X187659164Y-64579904D01*
X187793851Y-64579904D01*
X187894867Y-64613576D01*
X188063225Y-64714591D01*
X188164241Y-64815606D01*
X188265256Y-64983965D01*
X188298928Y-65084980D01*
X188298928Y-65219667D01*
X188231584Y-65354354D01*
X188063225Y-65522713D01*
X189140722Y-64445217D02*
X188736661Y-64849278D01*
X188938691Y-64647247D02*
X188231584Y-63940140D01*
X188265256Y-64108499D01*
X188265256Y-64243186D01*
X188231584Y-64344202D01*
X188669317Y-63502408D02*
X189107050Y-63064675D01*
X189140722Y-63569751D01*
X189241737Y-63468736D01*
X189342752Y-63435064D01*
X189410096Y-63435064D01*
X189511111Y-63468736D01*
X189679470Y-63637095D01*
X189713141Y-63738110D01*
X189713141Y-63805453D01*
X189679470Y-63906469D01*
X189477439Y-64108499D01*
X189376424Y-64142171D01*
X189309080Y-64142171D01*
X208406687Y-69220881D02*
X207699581Y-68513774D01*
X207867939Y-68345415D01*
X208002626Y-68278072D01*
X208137313Y-68278072D01*
X208238329Y-68311744D01*
X208406687Y-68412759D01*
X208507703Y-68513774D01*
X208608718Y-68682133D01*
X208642390Y-68783148D01*
X208642390Y-68917835D01*
X208575046Y-69052522D01*
X208406687Y-69220881D01*
X209484184Y-68143385D02*
X209080123Y-68547446D01*
X209282153Y-68345415D02*
X208575046Y-67638308D01*
X208608718Y-67806667D01*
X208608718Y-67941354D01*
X208575046Y-68042370D01*
X209113794Y-67234247D02*
X209113794Y-67166904D01*
X209147466Y-67065889D01*
X209315825Y-66897530D01*
X209416840Y-66863858D01*
X209484184Y-66863858D01*
X209585199Y-66897530D01*
X209652542Y-66964873D01*
X209719886Y-67099560D01*
X209719886Y-67907682D01*
X210157619Y-67469950D01*
X212716672Y-80231543D02*
X213423779Y-79524437D01*
X213592138Y-79692795D01*
X213659481Y-79827482D01*
X213659481Y-79962169D01*
X213625809Y-80063185D01*
X213524794Y-80231543D01*
X213423779Y-80332559D01*
X213255420Y-80433574D01*
X213154405Y-80467246D01*
X213019718Y-80467246D01*
X212885031Y-80399902D01*
X212716672Y-80231543D01*
X213794168Y-81309040D02*
X213390107Y-80904979D01*
X213592138Y-81107009D02*
X214299245Y-80399902D01*
X214130886Y-80433574D01*
X213996199Y-80433574D01*
X213895184Y-80399902D01*
X214467603Y-81982475D02*
X214063542Y-81578414D01*
X214265573Y-81780444D02*
X214972680Y-81073337D01*
X214804321Y-81107009D01*
X214669634Y-81107009D01*
X214568619Y-81073337D01*
X205155176Y-96833820D02*
X204155176Y-96833820D01*
X204155176Y-96595725D01*
X204202796Y-96452868D01*
X204298034Y-96357630D01*
X204393272Y-96310011D01*
X204583748Y-96262392D01*
X204726605Y-96262392D01*
X204917081Y-96310011D01*
X205012319Y-96357630D01*
X205107557Y-96452868D01*
X205155176Y-96595725D01*
X205155176Y-96833820D01*
X205155176Y-95310011D02*
X205155176Y-95881439D01*
X205155176Y-95595725D02*
X204155176Y-95595725D01*
X204298034Y-95690963D01*
X204393272Y-95786201D01*
X204440891Y-95881439D01*
X204155176Y-94690963D02*
X204155176Y-94595725D01*
X204202796Y-94500487D01*
X204250415Y-94452868D01*
X204345653Y-94405249D01*
X204536129Y-94357630D01*
X204774224Y-94357630D01*
X204964700Y-94405249D01*
X205059938Y-94452868D01*
X205107557Y-94500487D01*
X205155176Y-94595725D01*
X205155176Y-94690963D01*
X205107557Y-94786201D01*
X205059938Y-94833820D01*
X204964700Y-94881439D01*
X204774224Y-94929058D01*
X204536129Y-94929058D01*
X204345653Y-94881439D01*
X204250415Y-94833820D01*
X204202796Y-94786201D01*
X204155176Y-94690963D01*
X203316530Y-68002974D02*
X204023636Y-67295867D01*
X204191995Y-67464226D01*
X204259339Y-67598913D01*
X204259339Y-67733600D01*
X204225667Y-67834615D01*
X204124652Y-68002974D01*
X204023636Y-68103989D01*
X203855278Y-68205005D01*
X203754262Y-68238676D01*
X203619575Y-68238676D01*
X203484888Y-68171333D01*
X203316530Y-68002974D01*
X204057308Y-68743753D02*
X204191995Y-68878440D01*
X204293011Y-68912111D01*
X204360354Y-68912111D01*
X204528713Y-68878440D01*
X204697072Y-68777424D01*
X204966446Y-68508050D01*
X205000117Y-68407035D01*
X205000117Y-68339692D01*
X204966446Y-68238676D01*
X204831759Y-68103989D01*
X204730743Y-68070317D01*
X204663400Y-68070317D01*
X204562385Y-68103989D01*
X204394026Y-68272348D01*
X204360354Y-68373363D01*
X204360354Y-68440707D01*
X204394026Y-68541722D01*
X204528713Y-68676409D01*
X204629728Y-68710081D01*
X204697072Y-68710081D01*
X204798087Y-68676409D01*
X208906040Y-81449451D02*
X208198933Y-80742345D01*
X208367292Y-80573986D01*
X208501979Y-80506642D01*
X208636666Y-80506642D01*
X208737681Y-80540314D01*
X208906040Y-80641329D01*
X209007055Y-80742345D01*
X209108071Y-80910703D01*
X209141742Y-81011719D01*
X209141742Y-81146406D01*
X209074399Y-81281093D01*
X208906040Y-81449451D01*
X209310101Y-80237268D02*
X209209086Y-80270940D01*
X209141742Y-80270940D01*
X209040727Y-80237268D01*
X209007055Y-80203596D01*
X208973383Y-80102581D01*
X208973383Y-80035238D01*
X209007055Y-79934222D01*
X209141742Y-79799535D01*
X209242758Y-79765864D01*
X209310101Y-79765864D01*
X209411116Y-79799535D01*
X209444788Y-79833207D01*
X209478460Y-79934222D01*
X209478460Y-80001566D01*
X209444788Y-80102581D01*
X209310101Y-80237268D01*
X209276429Y-80338283D01*
X209276429Y-80405627D01*
X209310101Y-80506642D01*
X209444788Y-80641329D01*
X209545803Y-80675001D01*
X209613147Y-80675001D01*
X209714162Y-80641329D01*
X209848849Y-80506642D01*
X209882521Y-80405627D01*
X209882521Y-80338283D01*
X209848849Y-80237268D01*
X209714162Y-80102581D01*
X209613147Y-80068909D01*
X209545803Y-80068909D01*
X209444788Y-80102581D01*
X201136273Y-92536381D02*
X201136273Y-91536381D01*
X201374369Y-91536381D01*
X201517226Y-91584001D01*
X201612464Y-91679239D01*
X201660083Y-91774477D01*
X201707702Y-91964953D01*
X201707702Y-92107810D01*
X201660083Y-92298286D01*
X201612464Y-92393524D01*
X201517226Y-92488762D01*
X201374369Y-92536381D01*
X201136273Y-92536381D01*
X202041035Y-91536381D02*
X202707702Y-91536381D01*
X202279130Y-92536381D01*
X190659487Y-96711183D02*
X189659487Y-96711183D01*
X189659487Y-96473088D01*
X189707107Y-96330230D01*
X189802345Y-96234992D01*
X189897583Y-96187373D01*
X190088059Y-96139754D01*
X190230916Y-96139754D01*
X190421392Y-96187373D01*
X190516630Y-96234992D01*
X190611868Y-96330230D01*
X190659487Y-96473088D01*
X190659487Y-96711183D01*
X189659487Y-95282611D02*
X189659487Y-95473088D01*
X189707107Y-95568326D01*
X189754726Y-95615945D01*
X189897583Y-95711183D01*
X190088059Y-95758802D01*
X190469011Y-95758802D01*
X190564249Y-95711183D01*
X190611868Y-95663564D01*
X190659487Y-95568326D01*
X190659487Y-95377849D01*
X190611868Y-95282611D01*
X190564249Y-95234992D01*
X190469011Y-95187373D01*
X190230916Y-95187373D01*
X190135678Y-95234992D01*
X190088059Y-95282611D01*
X190040440Y-95377849D01*
X190040440Y-95568326D01*
X190088059Y-95663564D01*
X190135678Y-95711183D01*
X190230916Y-95758802D01*
X176517352Y-96711183D02*
X175517352Y-96711183D01*
X175517352Y-96473088D01*
X175564972Y-96330230D01*
X175660210Y-96234992D01*
X175755448Y-96187373D01*
X175945924Y-96139754D01*
X176088781Y-96139754D01*
X176279257Y-96187373D01*
X176374495Y-96234992D01*
X176469733Y-96330230D01*
X176517352Y-96473088D01*
X176517352Y-96711183D01*
X175517352Y-95234992D02*
X175517352Y-95711183D01*
X175993543Y-95758802D01*
X175945924Y-95711183D01*
X175898305Y-95615945D01*
X175898305Y-95377849D01*
X175945924Y-95282611D01*
X175993543Y-95234992D01*
X176088781Y-95187373D01*
X176326876Y-95187373D01*
X176422114Y-95234992D01*
X176469733Y-95282611D01*
X176517352Y-95377849D01*
X176517352Y-95615945D01*
X176469733Y-95711183D01*
X176422114Y-95758802D01*
X155710397Y-91511580D02*
X155003290Y-90804474D01*
X155171649Y-90636115D01*
X155306336Y-90568771D01*
X155441023Y-90568771D01*
X155542038Y-90602443D01*
X155710397Y-90703458D01*
X155811412Y-90804474D01*
X155912428Y-90972832D01*
X155946099Y-91073848D01*
X155946099Y-91208535D01*
X155878756Y-91343222D01*
X155710397Y-91511580D01*
X156249145Y-90030023D02*
X156720550Y-90501428D01*
X155811412Y-89929008D02*
X156148130Y-90602443D01*
X156585863Y-90164710D01*
X186994137Y-92536381D02*
X186994137Y-91536381D01*
X187232233Y-91536381D01*
X187375090Y-91584001D01*
X187470328Y-91679239D01*
X187517947Y-91774477D01*
X187565566Y-91964953D01*
X187565566Y-92107810D01*
X187517947Y-92298286D01*
X187470328Y-92393524D01*
X187375090Y-92488762D01*
X187232233Y-92536381D01*
X186994137Y-92536381D01*
X187898899Y-91536381D02*
X188517947Y-91536381D01*
X188184613Y-91917334D01*
X188327471Y-91917334D01*
X188422709Y-91964953D01*
X188470328Y-92012572D01*
X188517947Y-92107810D01*
X188517947Y-92345905D01*
X188470328Y-92441143D01*
X188422709Y-92488762D01*
X188327471Y-92536381D01*
X188041756Y-92536381D01*
X187946518Y-92488762D01*
X187898899Y-92441143D01*
X172852002Y-92536381D02*
X172852002Y-91536381D01*
X173090098Y-91536381D01*
X173232955Y-91584001D01*
X173328193Y-91679239D01*
X173375812Y-91774477D01*
X173423431Y-91964953D01*
X173423431Y-92107810D01*
X173375812Y-92298286D01*
X173328193Y-92393524D01*
X173232955Y-92488762D01*
X173090098Y-92536381D01*
X172852002Y-92536381D01*
X173804383Y-91631620D02*
X173852002Y-91584001D01*
X173947240Y-91536381D01*
X174185336Y-91536381D01*
X174280574Y-91584001D01*
X174328193Y-91631620D01*
X174375812Y-91726858D01*
X174375812Y-91822096D01*
X174328193Y-91964953D01*
X173756764Y-92536381D01*
X174375812Y-92536381D01*
X160497510Y-93088428D02*
X159790403Y-92381322D01*
X159958762Y-92212963D01*
X160093449Y-92145619D01*
X160228136Y-92145619D01*
X160329151Y-92179291D01*
X160497510Y-92280306D01*
X160598525Y-92381322D01*
X160699541Y-92549680D01*
X160733212Y-92650696D01*
X160733212Y-92785383D01*
X160665869Y-92920070D01*
X160497510Y-93088428D01*
X161575006Y-92010932D02*
X161170945Y-92414993D01*
X161372976Y-92212963D02*
X160665869Y-91505856D01*
X160699541Y-91674215D01*
X160699541Y-91808902D01*
X160665869Y-91909917D01*
M02*
